<svg width="50" height="50" viewBox="0 0 50 50" fill="none" xmlns="http://www.w3.org/2000/svg">
<path d="M7.5 12.5C8.32409 12.5 9.12967 12.2556 9.81488 11.7978C10.5001 11.34 11.0341 10.6892 11.3495 9.92785C11.6649 9.16649 11.7474 8.32871 11.5866 7.52046C11.4258 6.7122 11.029 5.96977 10.4463 5.38705C9.86356 4.80434 9.12113 4.4075 8.31288 4.24673C7.50462 4.08596 6.66684 4.16847 5.90549 4.48384C5.14413 4.7992 4.49338 5.33325 4.03554 6.01846C3.5777 6.70366 3.33333 7.50924 3.33333 8.33333C3.33457 9.43802 3.77396 10.4971 4.55509 11.2782C5.33622 12.0594 6.39531 12.4988 7.5 12.5ZM7.5 5.83333C7.99445 5.83333 8.4778 5.97996 8.88893 6.25466C9.30005 6.52936 9.62048 6.91981 9.8097 7.37662C9.99892 7.83344 10.0484 8.33611 9.95196 8.82106C9.8555 9.30601 9.6174 9.75147 9.26777 10.1011C8.91814 10.4507 8.47268 10.6888 7.98773 10.7853C7.50277 10.8818 7.00011 10.8323 6.54329 10.643C6.08648 10.4538 5.69603 10.1334 5.42133 9.72226C5.14662 9.31114 5 8.82779 5 8.33333C5.00077 7.67053 5.26441 7.03509 5.73309 6.56642C6.20176 6.09774 6.8372 5.83411 7.5 5.83333ZM13.3333 5C13.3333 4.77899 13.4211 4.56702 13.5774 4.41074C13.7337 4.25446 13.9457 4.16667 14.1667 4.16667H30.8333C31.0543 4.16667 31.2663 4.25446 31.4226 4.41074C31.5789 4.56702 31.6667 4.77899 31.6667 5C31.6667 5.22101 31.5789 5.43297 31.4226 5.58926C31.2663 5.74554 31.0543 5.83333 30.8333 5.83333H14.1667C13.9457 5.83333 13.7337 5.74554 13.5774 5.58926C13.4211 5.43297 13.3333 5.22101 13.3333 5ZM13.3333 8.33333C13.3333 8.11232 13.4211 7.90036 13.5774 7.74408C13.7337 7.5878 13.9457 7.5 14.1667 7.5H30.8333C31.0543 7.5 31.2663 7.5878 31.4226 7.74408C31.5789 7.90036 31.6667 8.11232 31.6667 8.33333C31.6667 8.55435 31.5789 8.76631 31.4226 8.92259C31.2663 9.07887 31.0543 9.16667 30.8333 9.16667H14.1667C13.9457 9.16667 13.7337 9.07887 13.5774 8.92259C13.4211 8.76631 13.3333 8.55435 13.3333 8.33333ZM13.3333 11.6667C13.3333 11.4457 13.4211 11.2337 13.5774 11.0774C13.7337 10.9211 13.9457 10.8333 14.1667 10.8333H30.8333C31.0543 10.8333 31.2663 10.9211 31.4226 11.0774C31.5789 11.2337 31.6667 11.4457 31.6667 11.6667C31.6667 11.8877 31.5789 12.0996 31.4226 12.2559C31.2663 12.4122 31.0543 12.5 30.8333 12.5H14.1667C13.9457 12.5 13.7337 12.4122 13.5774 12.2559C13.4211 12.0996 13.3333 11.8877 13.3333 11.6667ZM22.5 25C22.5 25.221 22.4122 25.433 22.2559 25.5893C22.0996 25.7455 21.8877 25.8333 21.6667 25.8333H5C4.77899 25.8333 4.56702 25.7455 4.41074 25.5893C4.25446 25.433 4.16667 25.221 4.16667 25C4.16667 24.779 4.25446 24.567 4.41074 24.4107C4.56702 24.2545 4.77899 24.1667 5 24.1667H21.6667C21.8877 24.1667 22.0996 24.2545 22.2559 24.4107C22.4122 24.567 22.5 24.779 22.5 25ZM31.6667 15C31.6667 15.221 31.5789 15.433 31.4226 15.5893C31.2663 15.7455 31.0543 15.8333 30.8333 15.8333H5C4.77899 15.8333 4.56702 15.7455 4.41074 15.5893C4.25446 15.433 4.16667 15.221 4.16667 15C4.16667 14.779 4.25446 14.567 4.41074 14.4107C4.56702 14.2545 4.77899 14.1667 5 14.1667H30.8333C31.0543 14.1667 31.2663 14.2545 31.4226 14.4107C31.5789 14.567 31.6667 14.779 31.6667 15ZM31.6667 18.3333C31.6667 18.5543 31.5789 18.7663 31.4226 18.9226C31.2663 19.0789 31.0543 19.1667 30.8333 19.1667H5C4.77899 19.1667 4.56702 19.0789 4.41074 18.9226C4.25446 18.7663 4.16667 18.5543 4.16667 18.3333C4.16667 18.1123 4.25446 17.9004 4.41074 17.7441C4.56702 17.5878 4.77899 17.5 5 17.5H30.8333C31.0543 17.5 31.2663 17.5878 31.4226 17.7441C31.5789 17.9004 31.6667 18.1123 31.6667 18.3333ZM31.6667 21.6667C31.6667 21.8877 31.5789 22.0996 31.4226 22.2559C31.2663 22.4122 31.0543 22.5 30.8333 22.5H5C4.77899 22.5 4.56702 22.4122 4.41074 22.2559C4.25446 22.0996 4.16667 21.8877 4.16667 21.6667C4.16667 21.4457 4.25446 21.2337 4.41074 21.0774C4.56702 20.9211 4.77899 20.8333 5 20.8333H30.8333C31.0543 20.8333 31.2663 20.9211 31.4226 21.0774C31.5789 21.2337 31.6667 21.4457 31.6667 21.6667ZM19.1667 27.5H5C4.77899 27.5 4.56702 27.5878 4.41074 27.7441C4.25446 27.9004 4.16667 28.1123 4.16667 28.3333V40C4.16667 40.221 4.25446 40.433 4.41074 40.5893C4.56702 40.7455 4.77899 40.8333 5 40.8333H19.1667C19.3877 40.8333 19.5996 40.7455 19.7559 40.5893C19.9122 40.433 20 40.221 20 40V28.3333C20 28.1123 19.9122 27.9004 19.7559 27.7441C19.5996 27.5878 19.3877 27.5 19.1667 27.5ZM18.3333 39.1667H5.83333V29.1667H18.3333V39.1667ZM36.6667 30C35.5129 30 34.3851 30.3421 33.4258 30.9831C32.4666 31.6241 31.7189 32.5351 31.2774 33.601C30.8359 34.6669 30.7203 35.8398 30.9454 36.9714C31.1705 38.1029 31.7261 39.1423 32.5419 39.9581C33.3577 40.7739 34.3971 41.3295 35.5286 41.5546C36.6602 41.7797 37.8331 41.6641 38.899 41.2226C39.9649 40.7811 40.8759 40.0334 41.5169 39.0742C42.1579 38.1149 42.5 36.9871 42.5 35.8333C42.4983 34.2868 41.8831 32.804 40.7895 31.7105C39.6959 30.6169 38.2132 30.0017 36.6667 30ZM32.5 35.8333C32.5 35.1868 32.6507 34.5492 32.94 33.971C33.2293 33.3928 33.6493 32.89 34.1667 32.5023V39.1644C33.6493 38.7767 33.2293 38.2739 32.94 37.6957C32.6507 37.1175 32.5 36.4799 32.5 35.8333ZM35.8333 39.9167V31.751C36.3833 31.6392 36.9501 31.6392 37.5 31.751V39.9167C36.9501 40.0285 36.3833 40.0285 35.8333 39.9167ZM39.1667 39.1649V32.5023C39.6841 32.8899 40.1041 33.3928 40.3934 33.971C40.6827 34.5492 40.8333 35.1868 40.8333 35.8333C40.8333 36.4799 40.6827 37.1175 40.3934 37.6957C40.1041 38.2739 39.6841 38.7767 39.1667 39.1644V39.1649ZM50 34.1667C50 33.9457 49.9122 33.7337 49.7559 33.5774C49.5996 33.4211 49.3877 33.3333 49.1667 33.3333H47.3497C47.0884 32.2008 46.655 31.1151 46.0647 30.1139L48.0893 28.0893C48.1667 28.0119 48.228 27.92 48.2699 27.8189C48.3118 27.7178 48.3334 27.6094 48.3334 27.5C48.3334 27.3906 48.3118 27.2822 48.2699 27.1811C48.228 27.08 48.1667 26.9881 48.0893 26.9107L45.5893 24.4107C45.5119 24.3333 45.42 24.272 45.3189 24.2301C45.2178 24.1882 45.1094 24.1666 45 24.1666C44.8906 24.1666 44.7822 24.1882 44.6811 24.2301C44.58 24.272 44.4881 24.3333 44.4107 24.4107L42.3861 26.4353C41.3849 25.845 40.2992 25.4116 39.1667 25.1503V5C39.1667 4.77899 39.0789 4.56702 38.9226 4.41074C38.7663 4.25446 38.5543 4.16667 38.3333 4.16667H35.8333V0.833333C35.8333 0.61232 35.7455 0.400358 35.5893 0.244078C35.433 0.0877973 35.221 0 35 0H0.833333C0.61232 0 0.400358 0.0877973 0.244078 0.244078C0.0877973 0.400358 0 0.61232 0 0.833333V43.3333C0 43.5543 0.0877973 43.7663 0.244078 43.9226C0.400358 44.0789 0.61232 44.1667 0.833333 44.1667H4.16667V47.5C4.16667 47.721 4.25446 47.933 4.41074 48.0893C4.56702 48.2455 4.77899 48.3333 5 48.3333H34.1667V49.1667C34.1667 49.3877 34.2545 49.5996 34.4107 49.7559C34.567 49.9122 34.779 50 35 50H38.3333C38.5543 50 38.7663 49.9122 38.9226 49.7559C39.0789 49.5996 39.1667 49.3877 39.1667 49.1667V46.5164C40.2992 46.255 41.3849 45.8217 42.3861 45.2314L44.4107 47.2559C44.4881 47.3333 44.58 47.3947 44.6811 47.4366C44.7822 47.4785 44.8906 47.5 45 47.5C45.1094 47.5 45.2178 47.4785 45.3189 47.4366C45.42 47.3947 45.5119 47.3333 45.5893 47.2559L48.0893 44.7559C48.1667 44.6786 48.228 44.5867 48.2699 44.4856C48.3118 44.3845 48.3334 44.2761 48.3334 44.1667C48.3334 44.0572 48.3118 43.9489 48.2699 43.8478C48.228 43.7466 48.1667 43.6548 48.0893 43.5774L46.0647 41.5528C46.655 40.5516 47.0884 39.4658 47.3497 38.3333H49.1667C49.3877 38.3333 49.5996 38.2455 49.7559 38.0893C49.9122 37.933 50 37.721 50 37.5V34.1667ZM37.5 5.83333V21.6667H35.8333V5.83333H37.5ZM1.66667 1.66667H34.1667V25.1503C33.0342 25.4116 31.9484 25.845 30.9472 26.4353L28.9226 24.4107C28.8452 24.3333 28.7534 24.272 28.6522 24.2301C28.5511 24.1882 28.4428 24.1666 28.3333 24.1666C28.2239 24.1666 28.1155 24.1882 28.0144 24.2301C27.9133 24.272 27.8214 24.3333 27.7441 24.4107L25.2441 26.9107C25.1667 26.9881 25.1053 27.08 25.0634 27.1811C25.0215 27.2822 25 27.3906 25 27.5C25 27.6094 25.0215 27.7178 25.0634 27.8189C25.1053 27.92 25.1667 28.0119 25.2441 28.0893L27.2686 30.1139C26.6783 31.1151 26.245 32.2008 25.9836 33.3333H24.1667C23.9457 33.3333 23.7337 33.4211 23.5774 33.5774C23.4211 33.7337 23.3333 33.9457 23.3333 34.1667V37.5C23.3333 37.721 23.4211 37.933 23.5774 38.0893C23.7337 38.2455 23.9457 38.3333 24.1667 38.3333H25.9836C26.245 39.4658 26.6783 40.5516 27.2686 41.5528L26.3215 42.5H1.66667V1.66667ZM5.83333 44.1667H25C24.9999 44.2761 25.0213 44.3845 25.0632 44.4857C25.1051 44.5868 25.1666 44.6786 25.2441 44.7559L27.1548 46.6667H5.83333V44.1667ZM29.5119 46.6667L30.9472 45.2314C31.9484 45.8217 33.0342 46.255 34.1667 46.5164V46.6667H29.5119ZM48.3333 36.6667H46.6667C46.4694 36.6667 46.2786 36.7366 46.1281 36.8641C45.9776 36.9916 45.8772 37.1683 45.8447 37.3628C45.6157 38.7331 45.0946 40.0382 44.3169 41.1894C44.2047 41.3498 44.1527 41.5447 44.1698 41.7397C44.1869 41.9347 44.2722 42.1175 44.4106 42.2559L46.3216 44.1667L45 45.4882L43.0893 43.5774C42.9508 43.439 42.7681 43.3537 42.573 43.3366C42.378 43.3194 42.1832 43.3715 42.0227 43.4836C40.8715 44.2614 39.5665 44.7825 38.1961 45.0115C38.0016 45.0439 37.8249 45.1443 37.6974 45.2948C37.57 45.4453 37.5 45.6361 37.5 45.8333V48.3333H35.8333V45.8333C35.8333 45.6361 35.7634 45.4453 35.6359 45.2948C35.5084 45.1442 35.3317 45.0438 35.1372 45.0114C33.7669 44.7824 32.4618 44.2613 31.3106 43.4835C31.1502 43.3714 30.9553 43.3193 30.7603 43.3365C30.5653 43.3536 30.3825 43.4389 30.2441 43.5773L28.3333 45.4882L27.0118 44.1667L28.9226 42.2559C29.061 42.1175 29.1463 41.9347 29.1634 41.7397C29.1806 41.5447 29.1285 41.3498 29.0164 41.1894C28.2386 40.0382 27.7175 38.7331 27.4885 37.3628C27.4561 37.1683 27.3557 36.9916 27.2052 36.8641C27.0547 36.7366 26.8639 36.6667 26.6667 36.6667H25V35H26.6667C26.8639 35 27.0547 34.93 27.2052 34.8026C27.3558 34.6751 27.4562 34.4984 27.4886 34.3039C27.7176 32.9335 28.2387 31.6285 29.0165 30.4773C29.1286 30.3168 29.1807 30.122 29.1635 29.927C29.1464 29.7319 29.0611 29.5492 28.9227 29.4107L27.0118 27.5L28.3333 26.1784L30.2441 28.0893C30.3825 28.2277 30.5653 28.313 30.7603 28.3301C30.9553 28.3472 31.1502 28.2952 31.3106 28.183C32.4618 27.4053 33.7669 26.8842 35.1372 26.6552C35.3317 26.6227 35.5084 26.5223 35.6359 26.3719C35.7633 26.2214 35.8333 26.0305 35.8333 25.8333V23.3333H37.5V25.8333C37.5 26.0306 37.57 26.2214 37.6974 26.3719C37.8249 26.5224 38.0016 26.6228 38.1961 26.6553C39.5665 26.8843 40.8715 27.4054 42.0227 28.1831C42.1832 28.2953 42.378 28.3473 42.573 28.3302C42.7681 28.3131 42.9508 28.2278 43.0893 28.0894L45 26.1784L46.3216 27.5L44.4107 29.4107C44.2723 29.5492 44.187 29.7319 44.1699 29.927C44.1528 30.122 44.2048 30.3168 44.317 30.4773C45.0947 31.6285 45.6158 32.9335 45.8448 34.3039C45.8773 34.4984 45.9777 34.6751 46.1281 34.8026C46.2786 34.93 46.4695 35 46.6667 35H48.3333V36.6667Z" fill="white"/>
</svg>
