<svg width="50" height="50" viewBox="0 0 50 50" fill="none" xmlns="http://www.w3.org/2000/svg">
<path d="M15.9214 4.62728C16.0202 4.42962 16.1935 4.27932 16.4032 4.20944C16.6129 4.13957 16.8417 4.15584 17.0394 4.25468L18.7061 5.08801C18.8048 5.13644 18.893 5.20393 18.9655 5.28659C19.0381 5.36926 19.0935 5.46547 19.1287 5.56967C19.1639 5.67387 19.1781 5.78401 19.1705 5.89373C19.1629 6.00345 19.1337 6.11058 19.0845 6.20895C19.0353 6.30732 18.9671 6.39497 18.8839 6.46687C18.8007 6.53876 18.704 6.59347 18.5995 6.62783C18.4951 6.6622 18.3848 6.67555 18.2752 6.6671C18.1655 6.65866 18.0586 6.62859 17.9606 6.57864L16.294 5.7453C16.0963 5.64645 15.946 5.47313 15.8761 5.26346C15.8063 5.05379 15.8225 4.82495 15.9214 4.62728ZM9.16669 28.3333C9.33151 28.3333 9.49262 28.2844 9.62967 28.1928C9.76671 28.1013 9.87352 27.9711 9.93659 27.8189C9.99966 27.6666 10.0162 27.499 9.98401 27.3374C9.95186 27.1757 9.87249 27.0272 9.75594 26.9107C9.6394 26.7942 9.49092 26.7148 9.32927 26.6826C9.16761 26.6505 9.00006 26.667 8.84779 26.7301C8.69552 26.7931 8.56537 26.8999 8.4738 27.037C8.38223 27.174 8.33336 27.3351 8.33336 27.5C8.33336 27.721 8.42116 27.9329 8.57744 28.0892C8.73372 28.2455 8.94568 28.3333 9.16669 28.3333ZM22.5 28.3333C22.6648 28.3333 22.8259 28.2844 22.963 28.1928C23.1 28.1013 23.2068 27.9711 23.2699 27.8189C23.333 27.6666 23.3495 27.499 23.3173 27.3374C23.2852 27.1757 23.2058 27.0272 23.0893 26.9107C22.9727 26.7942 22.8242 26.7148 22.6626 26.6826C22.5009 26.6505 22.3334 26.667 22.1811 26.7301C22.0288 26.7931 21.8987 26.8999 21.8071 27.037C21.7155 27.174 21.6667 27.3351 21.6667 27.5C21.6667 27.721 21.7545 27.9329 21.9107 28.0892C22.067 28.2455 22.279 28.3333 22.5 28.3333ZM27.5 28.3333C27.6648 28.3333 27.8259 28.2844 27.963 28.1928C28.1 28.1013 28.2068 27.9711 28.2699 27.8189C28.333 27.6666 28.3495 27.499 28.3173 27.3374C28.2852 27.1757 28.2058 27.0272 28.0892 26.9107C27.9727 26.7942 27.8242 26.7148 27.6626 26.6826C27.5009 26.6505 27.3334 26.667 27.1811 26.7301C27.0288 26.7931 26.8987 26.8999 26.8071 27.037C26.7155 27.174 26.6667 27.3351 26.6667 27.5C26.6667 27.721 26.7545 27.9329 26.9107 28.0892C27.067 28.2455 27.279 28.3333 27.5 28.3333ZM25 3.33333C25.221 3.33333 25.433 3.24553 25.5893 3.08925C25.7455 2.93297 25.8333 2.72101 25.8333 2.5V0.833332C25.8333 0.612319 25.7455 0.400357 25.5893 0.244077C25.433 0.0877972 25.221 0 25 0C24.779 0 24.567 0.0877972 24.4107 0.244077C24.2545 0.400357 24.1667 0.612319 24.1667 0.833332V2.5C24.1667 2.72101 24.2545 2.93297 24.4107 3.08925C24.567 3.24553 24.779 3.33333 25 3.33333ZM20.088 3.70604C20.1364 3.80478 20.2039 3.89297 20.2866 3.96551C20.3693 4.03805 20.4655 4.09351 20.5697 4.12869C20.6739 4.16387 20.784 4.17807 20.8937 4.17049C21.0035 4.1629 21.1106 4.13366 21.209 4.08447C21.3073 4.03528 21.395 3.96711 21.4669 3.88388C21.5388 3.80065 21.5935 3.70401 21.6278 3.59953C21.6622 3.49506 21.6756 3.38482 21.6671 3.27516C21.6587 3.1655 21.6286 3.0586 21.5786 2.96062L20.7453 1.29396C20.6454 1.09806 20.4722 0.949581 20.2633 0.880871C20.0544 0.812162 19.8269 0.828794 19.6302 0.927142C19.4335 1.02549 19.2837 1.19758 19.2134 1.40592C19.143 1.61425 19.1579 1.84194 19.2547 2.03937L20.088 3.70604ZM28.794 4.07864C28.8918 4.12768 28.9984 4.15694 29.1076 4.16475C29.2167 4.17256 29.3264 4.15877 29.4302 4.12416C29.5341 4.08956 29.6301 4.03481 29.7127 3.96307C29.7954 3.89132 29.8631 3.80398 29.912 3.70604L30.7453 2.03937C30.7953 1.94139 30.8253 1.83449 30.8338 1.72483C30.8422 1.61518 30.8289 1.50493 30.7945 1.40046C30.7601 1.29598 30.7054 1.19935 30.6335 1.11612C30.5616 1.03289 30.474 0.964709 30.3756 0.915519C30.2772 0.866328 30.1701 0.837095 30.0604 0.829507C29.9507 0.821918 29.8405 0.836123 29.7363 0.871303C29.6321 0.906483 29.5359 0.961941 29.4533 1.03448C29.3706 1.10702 29.3031 1.19521 29.2547 1.29396L28.4213 2.96062C28.3225 3.15829 28.3062 3.38713 28.3761 3.5968C28.446 3.80646 28.5963 3.97979 28.794 4.07864ZM31.6673 6.66666C31.7965 6.66658 31.9239 6.63637 32.0394 6.57843L33.706 5.74509C33.8048 5.69667 33.893 5.62918 33.9655 5.54652C34.038 5.46385 34.0935 5.36764 34.1287 5.26344C34.1639 5.15923 34.1781 5.0491 34.1705 4.93938C34.1629 4.82966 34.1337 4.72253 34.0845 4.62416C34.0353 4.52579 33.9671 4.43813 33.8839 4.36624C33.8006 4.29435 33.704 4.23964 33.5995 4.20527C33.495 4.17091 33.3848 4.15756 33.2752 4.16601C33.1655 4.17445 33.0586 4.20452 32.9606 4.25447L31.2939 5.0878C31.1259 5.17173 30.9911 5.30998 30.9115 5.48011C30.8319 5.65024 30.8121 5.84228 30.8553 6.02508C30.8985 6.20788 31.0023 6.37072 31.1496 6.48718C31.297 6.60363 31.4794 6.66688 31.6673 6.66666ZM50 38.3333V49.1666C50 49.3876 49.9122 49.5996 49.7559 49.7558C49.5996 49.9121 49.3876 49.9999 49.1666 49.9999H0.83337C0.612357 49.9999 0.400396 49.9121 0.244116 49.7558C0.0878355 49.5996 3.83358e-05 49.3876 3.83358e-05 49.1666V38.3333C3.69513e-05 38.1894 0.037301 38.0479 0.108202 37.9227C0.179103 37.7975 0.281224 37.6927 0.404621 37.6187L3.11878 35.9902L3.33337 34.9172V34.3294C2.63163 33.6779 2.07341 32.8872 1.69431 32.0079C1.19785 30.8678 0.907117 29.6488 0.835558 28.4074L0.00847576 22.6177C0.00245287 22.5758 -0.000367749 22.5336 3.83358e-05 22.4913C0.0151425 21.0531 0.731079 18.3333 3.33337 18.3333H6.66669V15C6.66668 14.8251 6.7217 14.6546 6.82397 14.5127C6.92623 14.3708 7.07055 14.2647 7.23649 14.2094L19.1875 10.2257C19.2917 8.67915 19.799 7.43947 20.7025 6.53582C21.7217 5.51676 23.1675 4.99999 25 4.99999C26.8325 4.99999 28.2783 5.51676 29.2975 6.53582C30.201 7.43947 30.7083 8.67915 30.8125 10.2257L42.7635 14.2094C42.9294 14.2647 43.0738 14.3708 43.176 14.5127C43.2783 14.6546 43.3333 14.8251 43.3333 15V18.3333H46.6666C49.2689 18.3333 49.9849 21.0531 50 22.4913C50.0004 22.5337 49.9976 22.576 49.9915 22.6179L49.1644 28.4076C49.0929 29.649 48.8021 30.868 48.3057 32.0081C47.9266 32.8874 47.3684 33.6781 46.6666 34.3296V34.9174L46.8812 35.9904L49.5954 37.6189C49.7187 37.6929 49.8208 37.7976 49.8917 37.9228C49.9626 38.048 49.9999 38.1894 50 38.3333ZM45.0539 35.3523C44.504 35.5785 43.9246 35.7249 43.3333 35.7872V37.65L45.6041 38.1043L45.0539 35.3523ZM39.9185 35.4904L39.3958 38.1041L41.6666 37.6498V35.8029C41.0741 35.7638 40.4878 35.659 39.9184 35.4904H39.9185ZM37.5162 39.0032L37.7377 37.8961L35.7787 38.8753C35.8143 38.9683 35.8328 39.067 35.8333 39.1666V48.3333H41.6666V39.3497L38.4967 39.9838C38.3622 40.0107 38.2231 40.004 38.0918 39.9642C37.9605 39.9245 37.841 39.8529 37.744 39.7559C37.647 39.6589 37.5754 39.5394 37.5357 39.4081C37.4959 39.2768 37.4892 39.1377 37.5161 39.0032H37.5162ZM47.415 29.1666H45.8333C45.6894 29.1666 45.5479 29.1294 45.4227 29.0585C45.2975 28.9876 45.1928 28.8854 45.1187 28.762L42.8615 25H38.4005C38.3578 25.0823 38.3219 25.1679 38.293 25.256C37.8034 26.7707 37.0222 28.0263 36.4505 28.9435C36.283 29.2125 36.089 29.5237 35.9623 29.7567C36.4793 29.8934 37.0092 29.9754 37.5433 30.0015C37.6602 30.0076 37.7746 30.0383 37.8788 30.0915C37.9831 30.1447 38.075 30.2194 38.1485 30.3105C38.222 30.4016 38.2755 30.5072 38.3055 30.6204C38.3355 30.7336 38.3413 30.8518 38.3225 30.9673C38.2976 31.2001 38.303 31.4352 38.3385 31.6666C39.364 31.6214 40.3695 31.3678 41.2938 30.9214C41.3918 30.8711 41.4989 30.8407 41.6087 30.832C41.7186 30.8233 41.8291 30.8364 41.9338 30.8707C42.0385 30.905 42.1354 30.9597 42.2188 31.0317C42.3023 31.1036 42.3706 31.1915 42.4199 31.29C42.4692 31.3886 42.4984 31.4959 42.5059 31.6059C42.5134 31.7158 42.4991 31.8261 42.4637 31.9305C42.4283 32.0348 42.3725 32.1311 42.2996 32.2138C42.2268 32.2964 42.1382 32.3638 42.0391 32.412C41.1443 32.8492 40.1841 33.1372 39.1964 33.2647C39.8998 33.8634 41.0081 34.1666 42.5 34.1666C46.2083 34.1666 47.1677 30.7951 47.415 29.1666ZM46.6666 20H35.7237L37.9459 23.3333H43.3333C43.4772 23.3333 43.6187 23.3706 43.7439 23.4415C43.8691 23.5124 43.9738 23.6145 44.0479 23.7379L46.3051 27.5H47.6106L48.3312 22.455C48.3068 22.0023 48.2162 21.5557 48.0621 21.1294C47.677 20.1171 47.0813 20 46.6666 20ZM28.3333 17.652V18.3333H30C30.1094 18.3333 30.2178 18.3549 30.3189 18.3967C30.42 18.4386 30.5119 18.5 30.5893 18.5774L32.2559 20.244C32.3333 20.3214 32.3947 20.4133 32.4366 20.5144C32.4784 20.6155 32.5 20.7239 32.5 20.8333V29.1666C32.4995 30.382 32.2036 31.579 31.6377 32.6546C31.0717 33.7302 30.2528 34.652 29.2513 35.3407L29.3301 35.7347L34.0968 37.8533L38.1516 35.8258L38.3333 34.9174V34.7059C38.0794 34.5174 37.8476 34.301 37.6421 34.0608C37.0602 33.3619 36.7153 32.4963 36.657 31.5888C36.4799 31.5656 36.2864 31.536 36.0923 31.4986C35.616 31.4068 34.1666 31.1275 34.1666 30C34.1666 29.457 34.5125 28.9019 35.0359 28.0618C35.5906 27.1715 36.2808 26.0635 36.707 24.7438C36.7257 24.6857 36.7465 24.6284 36.7683 24.5714L33.4733 19.6289C33.3896 19.5034 33.3416 19.3576 33.3343 19.2069C33.327 19.0563 33.3608 18.9064 33.4319 18.7734C33.5031 18.6405 33.609 18.5293 33.7384 18.4518C33.8678 18.3742 34.0158 18.3333 34.1666 18.3333H41.6666V15.6006L30.5037 11.8797C30.3122 12.3978 30.0095 13.2026 29.5299 14.477C29.0134 15.8497 28.4972 17.2177 28.3333 17.652ZM23.3333 20H26.6667V18.3333H23.3333V20ZM21.6667 20.8333V20H20.3451L19.1667 21.1784V24.0312L19.2095 23.9029C19.2648 23.737 19.371 23.5927 19.5128 23.4905C19.6547 23.3883 19.8251 23.3333 20 23.3333H30C30.1749 23.3333 30.3453 23.3883 30.4872 23.4906C30.6291 23.5929 30.7352 23.7372 30.7905 23.9031L30.8333 24.0312V21.1784L29.6549 20H28.3333V20.8333C28.3333 21.0543 28.2455 21.2663 28.0892 21.4226C27.933 21.5788 27.721 21.6666 27.5 21.6666H22.5C22.279 21.6666 22.067 21.5788 21.9107 21.4226C21.7545 21.2663 21.6667 21.0543 21.6667 20.8333ZM19.1699 29.2923C19.2028 30.8168 19.8314 32.2678 20.9212 33.3343C22.011 34.4009 23.4752 34.9981 25 34.9981C26.5248 34.9981 27.989 34.4009 29.0788 33.3343C30.1686 32.2678 30.7972 30.8168 30.8301 29.2923L29.3994 25H20.6006L19.1699 29.2923ZM21.8958 38.1041L24.1667 37.6498V36.6186C23.522 36.5469 22.8895 36.3912 22.2853 36.1554L21.8958 38.1041ZM25.8333 37.6498L28.1042 38.1041L27.7145 36.1562C27.1103 36.3919 26.4779 36.5476 25.8333 36.6192V37.6498ZM20.8347 10.6858L23.0775 16.6666H26.9238C27.7923 14.3646 28.9311 11.3389 29.1655 10.6955C29.1194 8.02176 27.7187 6.66666 25 6.66666C22.2848 6.66666 20.8841 8.01863 20.8347 10.6858ZM8.33336 18.3333H15.8333C15.9842 18.3333 16.1322 18.3742 16.2616 18.4518C16.391 18.5293 16.4969 18.6405 16.5681 18.7734C16.6392 18.9064 16.673 19.0563 16.6657 19.2069C16.6584 19.3576 16.6104 19.5034 16.5267 19.6289L13.2317 24.5714C13.2535 24.6284 13.2743 24.686 13.293 24.7438C13.7192 26.0635 14.4094 27.1715 14.9641 28.0618C15.4875 28.9019 15.8333 29.457 15.8333 30C15.8333 31.1275 14.384 31.4068 13.9077 31.4986C13.7136 31.536 13.5204 31.5656 13.343 31.5888C13.2847 32.4963 12.9398 33.3619 12.3579 34.0608C12.1524 34.301 11.9205 34.5174 11.6667 34.7059V34.9174L11.8484 35.8258L15.9032 37.8533L20.6699 35.7347L20.7486 35.3407C19.7472 34.652 18.9283 33.7302 18.3623 32.6546C17.7964 31.579 17.5004 30.382 17.5 29.1666V20.8333C17.5 20.7239 17.5216 20.6155 17.5634 20.5144C17.6053 20.4133 17.6667 20.3214 17.7441 20.244L19.4107 18.5774C19.4881 18.5 19.58 18.4386 19.6811 18.3967C19.7822 18.3549 19.8906 18.3333 20 18.3333H21.6667V17.651L19.5017 11.8779L8.33336 15.6006V18.3333ZM14.1667 39.1666C14.1673 39.0671 14.1858 38.9686 14.2214 38.8757L12.2624 37.8965L12.4839 39.0036C12.5108 39.1381 12.5041 39.2772 12.4643 39.4085C12.4246 39.5398 12.353 39.6593 12.256 39.7563C12.159 39.8533 12.0395 39.9249 11.9082 39.9647C11.7769 40.0044 11.6378 40.0111 11.5032 39.9842L8.33336 39.3497V48.3333H14.1667V39.1666ZM8.33336 35.8029V37.65L10.6042 38.1043L10.0814 35.4904C9.51209 35.659 8.92581 35.7638 8.33336 35.8029ZM1.66879 22.455L2.38941 27.5H3.69493L5.95211 23.7379C6.02615 23.6145 6.13088 23.5124 6.25611 23.4415C6.38134 23.3706 6.52279 23.3333 6.66669 23.3333H12.0541L14.2763 20H3.33337C2.91868 20 2.32295 20.1171 1.93754 21.1294C1.78361 21.5558 1.69307 22.0024 1.66879 22.455ZM7.50003 34.1666C8.9919 34.1666 10.1002 33.8634 10.8036 33.2647C9.81588 33.1372 8.85567 32.8492 7.96086 32.412C7.86177 32.3638 7.77323 32.2964 7.70036 32.2138C7.62749 32.1311 7.57174 32.0348 7.53633 31.9305C7.50092 31.8261 7.48656 31.7158 7.49407 31.6059C7.50159 31.4959 7.53083 31.3886 7.58011 31.29C7.62939 31.1915 7.69772 31.1036 7.78116 31.0317C7.8646 30.9597 7.96149 30.905 8.06621 30.8707C8.17094 30.8364 8.28142 30.8233 8.39127 30.832C8.50112 30.8407 8.60815 30.8711 8.70617 30.9214C9.63048 31.3678 10.636 31.6214 11.6615 31.6666C11.697 31.4351 11.7024 31.1999 11.6775 30.9669C11.6587 30.8514 11.6645 30.7331 11.6945 30.62C11.7245 30.5068 11.778 30.4012 11.8515 30.3101C11.925 30.2189 12.0169 30.1443 12.1212 30.0911C12.2254 30.0379 12.3398 30.0072 12.4567 30.0011C12.9908 29.975 13.5207 29.893 14.0377 29.7563C13.911 29.5233 13.717 29.212 13.5495 28.9431C12.9784 28.0264 12.1962 26.7707 11.707 25.2556C11.6781 25.1676 11.6422 25.0821 11.5995 25H7.13846L4.88128 28.762C4.80724 28.8854 4.70251 28.9876 4.57728 29.0585C4.45206 29.1294 4.3106 29.1666 4.1667 29.1666H2.58503C2.83233 30.7951 3.7917 34.1666 7.50003 34.1666ZM4.94607 35.3523L4.39586 38.1041L6.66669 37.65V35.7872C6.07538 35.7249 5.49599 35.5785 4.94607 35.3523ZM1.6667 48.3333H6.66669V39.3497L3.4968 39.9838C3.36227 40.0107 3.22317 40.004 3.09186 39.9642C2.96055 39.9245 2.84108 39.8529 2.74406 39.7559C2.64705 39.6589 2.57549 39.5394 2.53573 39.4081C2.49598 39.2768 2.48926 39.1377 2.51618 39.0032L2.67712 38.1989L1.6667 38.805V48.3333ZM15.8333 48.3333H24.1667V39.3497L20.9968 39.9838C20.8622 40.0107 20.7231 40.004 20.5918 39.9642C20.4605 39.9245 20.341 39.8529 20.244 39.7559C20.147 39.6589 20.0755 39.5394 20.0357 39.4081C19.996 39.2768 19.9892 39.1377 20.0162 39.0032L20.2695 37.7365L15.8333 39.7083V48.3333ZM34.1666 39.7083L29.7305 37.7366L29.9838 39.0033C30.0108 39.1378 30.004 39.2769 29.9643 39.4082C29.9245 39.5395 29.853 39.659 29.756 39.756C29.6589 39.853 29.5395 39.9246 29.4082 39.9643C29.2769 40.0041 29.1378 40.0108 29.0032 39.9839L25.8333 39.3497V48.3333H34.1666V39.7083ZM48.3333 38.8051L47.3229 38.199L47.4837 39.0033C47.5106 39.1378 47.5039 39.2769 47.4642 39.4082C47.4244 39.5395 47.3528 39.659 47.2558 39.756C47.1588 39.853 47.0393 39.9246 46.908 39.9643C46.7767 40.0041 46.6376 40.0108 46.5031 39.9839L43.3333 39.3497V48.3333H48.3333V38.8051ZM40.8333 26.6666C40.6685 26.6666 40.5074 26.7155 40.3703 26.8071C40.2333 26.8986 40.1265 27.0288 40.0634 27.1811C40.0003 27.3333 39.9838 27.5009 40.016 27.6625C40.0481 27.8242 40.1275 27.9727 40.244 28.0892C40.3606 28.2058 40.5091 28.2851 40.6707 28.3173C40.8324 28.3494 40.9999 28.3329 41.1522 28.2699C41.3045 28.2068 41.4346 28.1 41.5262 27.9629C41.6178 27.8259 41.6666 27.6648 41.6666 27.5C41.6666 27.2789 41.5788 27.067 41.4226 26.9107C41.2663 26.7544 41.0543 26.6666 40.8333 26.6666ZM22.0377 32.3601C22.9142 32.9467 23.9452 33.2598 24.9999 33.2598C26.0547 33.2598 27.0856 32.9467 27.9622 32.3601C28.1437 32.2364 28.269 32.0462 28.311 31.8307C28.353 31.6151 28.3083 31.3917 28.1865 31.209C28.0646 31.0263 27.8756 30.8991 27.6605 30.855C27.4454 30.8108 27.2216 30.8534 27.0377 30.9734C26.4347 31.3769 25.7255 31.5923 24.9999 31.5923C24.2744 31.5923 23.5652 31.3769 22.9622 30.9734C22.8712 30.9114 22.7688 30.8681 22.6609 30.8459C22.553 30.8237 22.4418 30.8231 22.3337 30.8442C22.2256 30.8653 22.1228 30.9075 22.0311 30.9686C21.9395 31.0296 21.8608 31.1083 21.7997 31.1999C21.7386 31.2915 21.6963 31.3943 21.6752 31.5024C21.6541 31.6105 21.6546 31.7217 21.6768 31.8296C21.6989 31.9375 21.7422 32.0399 21.8041 32.131C21.8661 32.222 21.9455 32.2999 22.0377 32.3601Z" fill="white"/>
</svg>
