<svg width="60" height="54" viewBox="0 0 60 54" fill="none" xmlns="http://www.w3.org/2000/svg">
<path d="M60 9C60 8.73478 59.8946 8.48043 59.7071 8.29289C59.5196 8.10536 59.2652 8 59 8H42V7C41.9979 5.14412 41.2597 3.36486 39.9474 2.05255C38.6351 0.740252 36.8559 0.00208434 35 0H25C23.1441 0.00208434 21.3649 0.740252 20.0526 2.05255C18.7403 3.36486 18.0021 5.14412 18 7V8H1C0.734784 8 0.48043 8.10536 0.292893 8.29289C0.105357 8.48043 0 8.73478 0 9V49C0.00148882 50.3256 0.528751 51.5965 1.46611 52.5339C2.40347 53.4712 3.67437 53.9985 5 54H55C56.3256 53.9985 57.5965 53.4712 58.5339 52.5339C59.4712 51.5965 59.9985 50.3256 60 49V9ZM20 7C20.0015 5.67437 20.5288 4.40347 21.4661 3.46611C22.4035 2.52875 23.6744 2.00149 25 2H35C36.3256 2.00149 37.5965 2.52875 38.5339 3.46611C39.4712 4.40347 39.9985 5.67437 40 7V8H38V7C37.9991 6.20463 37.6827 5.44211 37.1203 4.8797C36.5579 4.31729 35.7954 4.00093 35 4H25C24.2046 4.00093 23.4421 4.31729 22.8797 4.8797C22.3173 5.44211 22.0009 6.20463 22 7V8H20V7ZM36 8H24V7C24.0003 6.73487 24.1058 6.48069 24.2932 6.29322C24.4807 6.10575 24.7349 6.0003 25 6H35C35.2651 6.0003 35.5193 6.10575 35.7068 6.29322C35.8943 6.48069 35.9997 6.73487 36 7V8ZM58 10V13.6826L46.4818 30H36V28C36 27.7348 35.8946 27.4804 35.7071 27.2929C35.5196 27.1054 35.2652 27 35 27H25C24.7348 27 24.4804 27.1054 24.2929 27.2929C24.1054 27.4804 24 27.7348 24 28V30H13.5181L2 13.6826V10H58ZM6 22.8174L12.183 31.5766C12.2753 31.7075 12.3977 31.8142 12.5399 31.8879C12.6821 31.9615 12.8399 32 13 32H24V34C24 34.2652 24.1054 34.5196 24.2929 34.7071C24.4804 34.8946 24.7348 35 25 35H35C35.2652 35 35.5196 34.8946 35.7071 34.7071C35.8946 34.5196 36 34.2652 36 34V32H47C47.1601 32 47.3179 31.9615 47.4601 31.8879C47.6023 31.8142 47.7247 31.7075 47.817 31.5766L54 22.8174V48H6V22.8174ZM34 29V33H31V29H34ZM29 33H26V29H29V33ZM55 52H5C4.20463 51.9991 3.44211 51.6827 2.8797 51.1203C2.31729 50.5579 2.00093 49.7954 2 49V17.1506L4 19.984V49C4 49.2652 4.10536 49.5196 4.29289 49.7071C4.48043 49.8946 4.73478 50 5 50H55C55.2652 50 55.5196 49.8946 55.7071 49.7071C55.8946 49.5196 56 49.2652 56 49V19.9841L58 17.1507V49C57.9991 49.7954 57.6827 50.5579 57.1203 51.1203C56.5579 51.6827 55.7954 51.9991 55 52Z" fill="#FE8C12"/>
</svg>
