<svg width="60" height="62" viewBox="0 0 60 62" fill="none" xmlns="http://www.w3.org/2000/svg">
<path d="M44 4.26429e-05C41.9623 -0.00170455 39.9733 0.622771 38.3023 1.78892C35.345 0.60147 32.1868 -0.00586192 29 4.26429e-05C28.7348 4.26429e-05 28.4804 0.105399 28.2929 0.292936C28.1054 0.480472 28 0.734826 28 1.00004V25C28 25.2652 28.1054 25.5196 28.2929 25.7071C28.4804 25.8947 28.7348 26 29 26H53C53.2652 26 53.5196 25.8947 53.7071 25.7071C53.8946 25.5196 54 25.2652 54 25C54.0059 21.8133 53.3986 18.6552 52.2111 15.6979C53.2537 14.1988 53.8656 12.4427 53.9803 10.6204C54.095 8.79802 53.7082 6.97906 52.8619 5.36107C52.0156 3.74308 50.7421 2.38792 49.1797 1.44278C47.6174 0.497642 45.826 -0.00133614 44 4.26429e-05ZM52 10C52 11.5823 51.5308 13.129 50.6518 14.4446C49.7727 15.7602 48.5233 16.7856 47.0615 17.3911C45.5997 17.9966 43.9911 18.155 42.4393 17.8463C40.8874 17.5376 39.462 16.7757 38.3432 15.6569C37.2243 14.5381 36.4624 13.1126 36.1537 11.5608C35.845 10.0089 36.0035 8.40038 36.609 6.93857C37.2145 5.47676 38.2399 4.22733 39.5554 3.34828C40.871 2.46923 42.4178 2.00004 44 2.00004C46.121 2.00242 48.1545 2.84604 49.6542 4.34582C51.154 5.84559 51.9976 7.87904 52 10ZM30 24V2.02117C32.2494 2.1141 34.4727 2.53955 36.5975 3.28367C34.8706 5.18435 33.9415 7.67682 34.003 10.2441C34.0644 12.8114 35.1117 15.2566 36.9276 17.0725C38.7435 18.8883 41.1886 19.9356 43.7559 19.9971C46.3232 20.0585 48.8157 19.1294 50.7164 17.4025C51.4605 19.5273 51.8859 21.7506 51.9789 24H30ZM45 12C44.9997 11.7349 44.8943 11.4807 44.7068 11.2933C44.5193 11.1058 44.2651 11.0003 44 11C43.2925 10.9998 42.6079 10.7494 42.0671 10.2933C41.5263 9.83723 41.1641 9.20466 41.0444 8.50738C40.9248 7.8101 41.0554 7.09297 41.4132 6.48266C41.7711 5.87236 42.3331 5.40815 43 5.17204V5.00004C43 4.73482 43.1054 4.48047 43.2929 4.29293C43.4804 4.1054 43.7348 4.00004 44 4.00004C44.2652 4.00004 44.5196 4.1054 44.7071 4.29293C44.8946 4.48047 45 4.73482 45 5.00004H46C46.2652 5.00004 46.5196 5.1054 46.7071 5.29293C46.8946 5.48047 47 5.73482 47 6.00004C47 6.26526 46.8946 6.51961 46.7071 6.70715C46.5196 6.89468 46.2652 7.00004 46 7.00004H44C43.7348 7.00004 43.4804 7.1054 43.2929 7.29293C43.1054 7.48047 43 7.73482 43 8.00004C43 8.26526 43.1054 8.51961 43.2929 8.70715C43.4804 8.89468 43.7348 9.00004 44 9.00004C44.7075 9.00032 45.3921 9.25063 45.9329 9.70674C46.4737 10.1628 46.8359 10.7954 46.9556 11.4927C47.0752 12.19 46.9446 12.9071 46.5868 13.5174C46.2289 14.1277 45.6669 14.5919 45 14.828V15C45 15.2653 44.8946 15.5196 44.7071 15.7071C44.5196 15.8947 44.2652 16 44 16C43.7348 16 43.4804 15.8947 43.2929 15.7071C43.1054 15.5196 43 15.2653 43 15H42C41.7348 15 41.4804 14.8947 41.2929 14.7071C41.1054 14.5196 41 14.2653 41 14C41 13.7348 41.1054 13.4805 41.2929 13.2929C41.4804 13.1054 41.7348 13 42 13H44C44.2651 12.9997 44.5193 12.8943 44.7068 12.7068C44.8943 12.5193 44.9997 12.2652 45 12ZM11 54H1.00003C0.734812 54 0.480458 54.1054 0.292922 54.2929C0.105386 54.4804 2.89876e-05 54.7348 2.89876e-05 55V59C2.89876e-05 59.2652 0.105386 59.5196 0.292922 59.7071C0.480458 59.8947 0.734812 60 1.00003 60H11C11.2652 60 11.5196 59.8947 11.7071 59.7071C11.8947 59.5196 12 59.2652 12 59V55C12 54.7348 11.8947 54.4804 11.7071 54.2929C11.5196 54.1054 11.2652 54 11 54ZM10 58H2.00003V56H10V58ZM1.00003 6.00004H11C11.2652 6.00004 11.5196 5.89468 11.7071 5.70715C11.8947 5.51961 12 5.26526 12 5.00004V1.00004C12 0.734826 11.8947 0.480472 11.7071 0.292936C11.5196 0.105399 11.2652 4.26429e-05 11 4.26429e-05H1.00003C0.734812 4.26429e-05 0.480458 0.105399 0.292922 0.292936C0.105386 0.480472 2.89876e-05 0.734826 2.89876e-05 1.00004V5.00004C2.89876e-05 5.26526 0.105386 5.51961 0.292922 5.70715C0.480458 5.89468 0.734812 6.00004 1.00003 6.00004ZM2.00003 2.00004H10V4.00004H2.00003V2.00004ZM43 56H33C32.7348 56 32.4804 56.1054 32.2929 56.2929C32.1054 56.4804 32 56.7348 32 57V61C32 61.2652 32.1054 61.5196 32.2929 61.7071C32.4804 61.8947 32.7348 62 33 62H43C43.2652 62 43.5196 61.8947 43.7071 61.7071C43.8946 61.5196 44 61.2652 44 61V57C44 56.7348 43.8946 56.4804 43.7071 56.2929C43.5196 56.1054 43.2652 56 43 56ZM42 60H34V58H42V60ZM59 44H49C48.7348 44 48.4804 44.1054 48.2929 44.2929C48.1054 44.4804 48 44.7348 48 45V49C48 49.2652 48.1054 49.5196 48.2929 49.7071C48.4804 49.8947 48.7348 50 49 50H59C59.2652 50 59.5196 49.8947 59.7071 49.7071C59.8946 49.5196 60 49.2652 60 49V45C60 44.7348 59.8946 44.4804 59.7071 44.2929C59.5196 44.1054 59.2652 44 59 44ZM58 48H50V46H58V48ZM35.1318 53.4961C35.1968 53.6104 35.2837 53.7106 35.3876 53.7912C35.4914 53.8718 35.6101 53.9311 35.7369 53.9658C35.8637 54.0005 35.9961 54.0098 36.1264 53.9933C36.2568 53.9768 36.3827 53.9347 36.4968 53.8695C36.6109 53.8043 36.7111 53.7172 36.7915 53.6132C36.872 53.5093 36.9311 53.3905 36.9656 53.2637C37.0001 53.1369 37.0093 53.0045 36.9926 52.8741C36.9759 52.7437 36.9336 52.6179 36.8683 52.5039L36.2058 51.3438C41.1285 48.8614 45.0999 44.8313 47.5098 39.8726L51.5533 41.8944C51.6708 41.9543 51.7991 41.9904 51.9307 42.0006C52.0623 42.0107 52.1946 41.9947 52.32 41.9534C52.4453 41.9122 52.5613 41.8465 52.6612 41.7603C52.761 41.674 52.8428 41.5688 52.9019 41.4508C52.9609 41.3327 52.996 41.2042 53.0051 41.0725C53.0142 40.9408 52.9972 40.8087 52.9549 40.6836C52.9127 40.5586 52.8462 40.4431 52.7591 40.3439C52.6721 40.2447 52.5662 40.1638 52.4478 40.1056L48.3103 38.0366C49.4301 35.1556 50.0032 32.0911 50 29C50 28.7348 49.8946 28.4805 49.7071 28.2929C49.5196 28.1054 49.2652 28 49 28H26V5.00004C26 4.73482 25.8947 4.48047 25.7071 4.29293C25.5196 4.1054 25.2652 4.00004 25 4.00004C19.4857 3.99458 14.126 5.82173 9.76327 9.19429L8.65077 8.24079C8.44941 8.06818 8.18772 7.98264 7.92329 8.00297C7.65885 8.02331 7.41332 8.14786 7.24071 8.34923C7.06811 8.55059 6.98256 8.81228 7.0029 9.07672C7.02323 9.34115 7.14778 9.58668 7.34915 9.75929L8.20752 10.495C5.66504 12.7972 3.62427 15.5986 2.21253 18.7245C0.800793 21.8504 0.0483877 25.2337 0.00225796 28.6633C-0.0438718 32.0929 0.617264 35.4952 1.94441 38.6579C3.27157 41.8206 5.23625 44.6759 7.7159 47.0456L5.20003 50.4C5.0409 50.6122 4.97257 50.8789 5.01008 51.1414C5.04758 51.404 5.18785 51.6409 5.40003 51.8C5.6122 51.9591 5.8789 52.0275 6.14145 51.99C6.404 51.9525 6.6409 51.8122 6.80003 51.6L9.21915 48.375C12.6865 51.2058 16.8513 53.0521 21.2773 53.7204C25.7033 54.3887 30.2275 53.8545 34.3761 52.1738L35.1318 53.4961ZM46.5125 37.1381L42.4474 35.1057C42.2105 34.9895 41.9372 34.9716 41.6872 35.0561C41.4372 35.1405 41.2307 35.3202 41.1127 35.5563C40.9947 35.7923 40.9747 36.0653 41.0572 36.316C41.1396 36.5666 41.3178 36.7745 41.5529 36.8944L45.7199 38.9779C44.6376 41.2134 43.202 43.2598 41.4683 45.0383L27.3145 30H47.9785C47.8748 32.4425 47.3799 34.8525 46.5125 37.1381ZM9.73952 11.8082L14.3491 15.7593C14.5505 15.9319 14.8122 16.0175 15.0767 15.9971C15.3411 15.9768 15.5866 15.8523 15.7593 15.6509C15.9319 15.4495 16.0175 15.1879 15.9971 14.9234C15.9768 14.659 15.8523 14.4134 15.6509 14.2408L11.3163 10.525C14.9968 7.78578 19.4161 6.21666 24 6.02154V27.234L5.81778 16.325C6.92445 14.6563 8.24268 13.1381 9.73952 11.8082ZM15.6 38.2C15.3878 38.0409 15.1211 37.9726 14.8586 38.0101C14.596 38.0476 14.3592 38.1879 14.2 38.4L8.92502 45.4329C5.34557 41.9405 3.00437 37.3748 2.25732 32.4299C1.51028 27.4851 2.39827 22.4315 4.78628 18.0375L24 29.5663V51.9769C19.028 51.7653 14.2604 49.9392 10.4193 46.775L15.8 39.6C15.8788 39.495 15.9361 39.3754 15.9687 39.2482C16.0013 39.121 16.0085 38.9886 15.99 38.8586C15.9714 38.7286 15.9274 38.6035 15.8605 38.4905C15.7936 38.3775 15.7051 38.2788 15.6 38.2ZM26 51.9771V31.5217L40.0125 46.4098C38.5524 47.6716 36.9398 48.7454 35.2125 49.606L32.8685 45.5039C32.7367 45.274 32.5191 45.1058 32.2634 45.0363C32.0077 44.9667 31.7349 45.0015 31.5048 45.133C31.2748 45.2644 31.1063 45.4818 31.0364 45.7374C30.9665 45.993 31.0009 46.2659 31.132 46.4961L33.375 50.4205C31.0198 51.3442 28.5276 51.8702 26 51.9771Z" fill="#FE8C12"/>
</svg>
