<svg width="50" height="50" viewBox="0 0 50 50" fill="none" xmlns="http://www.w3.org/2000/svg">
<path fill-rule="evenodd" clip-rule="evenodd" d="M25.85 0.114357C25.3848 0.263365 24.6445 0.934212 24.4179 1.41187C24.3156 1.62746 24.1932 2.22433 24.1458 2.73825C23.9088 5.30692 22.488 7.17743 20.1331 8.02146C19.6718 8.18673 19.1799 8.25217 18.0928 8.2927L16.6605 8.34616V7.75502C16.6605 7.26621 16.6162 7.1195 16.4047 6.90807L16.1491 6.65226H10.8269H5.50467L5.24904 6.90807C5.04153 7.11554 4.9933 7.26851 4.9933 7.71855V8.27332L4.27243 8.3869C1.36741 8.84445 -0.572577 11.7302 0.15256 14.5151C0.660499 16.4658 2.28734 17.9427 4.27243 18.2554L4.9933 18.369V18.9237C4.9933 19.7044 5.28279 19.99 6.07407 19.99C6.71046 19.99 6.67264 19.9341 6.81557 21.0841C7.02224 22.7463 7.90051 24.9646 8.97087 26.5279C9.27526 26.9725 10.2979 28.1221 11.2434 29.0826C12.8139 30.6782 12.9937 30.8289 13.3239 30.828C13.6533 30.8271 13.8543 30.6579 15.5896 28.9222C17.2922 27.2191 17.4939 26.9808 17.4939 26.6725C17.4939 26.3701 17.3166 26.1451 16.0598 24.8521C14.5028 23.25 13.9338 22.3761 13.5964 21.0691C13.3005 19.9229 13.2263 19.99 14.7901 19.99C16.0941 19.99 16.1594 19.9797 16.4047 19.7342C16.6162 19.5228 16.6605 19.3761 16.6605 18.8873V18.2961L18.0928 18.3474C19.2751 18.3898 19.6456 18.4437 20.2148 18.6555C21.206 19.0246 21.7596 19.3778 22.4681 20.0932C23.4833 21.1181 23.9963 22.2835 24.1458 23.9045C24.2484 25.0168 24.4504 25.4873 25.0533 26.0181C26.1006 26.9403 27.5344 26.8597 28.463 25.8265C28.7107 25.5509 28.9691 25.1394 29.0372 24.9121C29.1233 24.6245 29.161 23.308 29.161 20.589V16.6792L29.6526 16.6055C30.2045 16.5227 30.9554 16.1725 31.4206 15.781C31.591 15.6375 31.8899 15.2246 32.0846 14.8634C32.4079 14.2639 32.4386 14.1301 32.4386 13.3211C32.4386 12.5116 32.408 12.3787 32.0833 11.7764C31.5533 10.7933 30.7195 10.1968 29.6514 10.0366L29.161 9.96305V6.05331C29.161 3.33428 29.1233 2.0178 29.0372 1.73021C28.8557 1.12428 28.1159 0.349956 27.5266 0.149056C26.9817 -0.036631 26.3611 -0.049552 25.85 0.114357ZM27.2386 1.90641L27.4943 2.16212V13.3211V24.4802L27.2386 24.7359C27.0774 24.8972 26.8639 24.9917 26.6609 24.9917C26.458 24.9917 26.2445 24.8972 26.0833 24.7359L25.8276 24.4802V17.6502V10.8203H24.9942H24.1608V15.1052V19.39L23.4524 18.7262C22.5793 17.9082 21.6583 17.3589 20.5669 17.0057C19.878 16.7826 19.4672 16.7264 18.197 16.6815L16.6605 16.6272V13.3211V10.015L18.197 9.96075C19.4672 9.91584 19.878 9.85968 20.5669 9.63658C21.755 9.25198 22.6314 8.70377 23.5882 7.74669C24.9485 6.38602 25.6497 4.88563 25.7922 3.03095C25.8496 2.28404 25.9029 2.08678 26.1003 1.88932C26.4213 1.56817 26.9078 1.57547 27.2386 1.90641ZM14.9937 13.3211V18.3228H13.5827C12.2234 18.3228 12.1623 18.3322 11.916 18.5786C11.7153 18.7793 11.6605 18.9418 11.6611 19.3341C11.663 20.5861 12.0571 22.0695 12.7186 23.316C13.2221 24.2646 13.5515 24.695 14.6209 25.8028L15.4542 26.6659L14.3912 27.7293L13.3283 28.7925L12.2288 27.6997C11.0038 26.4819 10.5263 25.9002 9.89081 24.8517C9.15682 23.6408 8.57221 21.9095 8.39866 20.4329L8.34657 19.99H9.17005H9.99352V19.1564V18.3228H8.32678H6.66004V13.3211V8.31948H10.8269H14.9937V13.3211ZM4.9933 13.333V16.6792L4.49848 16.6061C3.84606 16.5097 2.8657 15.9806 2.4861 15.5199C1.90316 14.8125 1.72253 14.2923 1.72253 13.3211C1.72253 12.5963 1.76836 12.3408 1.97514 11.9144C2.49735 10.8375 3.64365 10.0481 4.75891 9.99733L4.9933 9.9867V13.333ZM30.0921 11.9481C30.6027 12.3252 30.7757 12.6728 30.7757 13.3211C30.7757 13.7746 30.7206 14.0049 30.5609 14.2188C30.2617 14.6197 29.8971 14.8702 29.4996 14.948L29.161 15.0144V13.3211V11.6279L29.4996 11.6942C29.6859 11.7307 29.9524 11.8449 30.0921 11.9481ZM44.9951 23.3208V24.1508L46.0374 24.1805L47.0799 24.2102L38.9543 32.3372L30.8288 40.464L25.1748 34.8119C19.8849 29.5237 19.4975 29.1597 19.1603 29.1597C18.8228 29.1597 18.421 29.5385 12.8603 35.0983L6.92078 41.0368L7.51997 41.6362L8.11917 42.2355L13.6394 36.7144L19.1597 31.1933L24.8137 36.8454C30.1061 42.136 30.4907 42.4975 30.8285 42.4975C31.1679 42.4975 31.7011 41.9859 39.759 33.9278L48.3286 25.3581V26.4253V27.4925H49.1619H49.9953V25.2475C49.9953 22.2485 50.2376 22.4909 47.2395 22.4909H44.9951V23.3208ZM15.2495 36.918L14.9937 37.1738V41.9197V46.6656H15.8271H16.6605V42.4975V38.3295H19.1606H21.6607V42.4975V46.6656H22.4941H23.3274V41.9197V37.1738L23.0717 36.918L22.8161 36.6622H19.1606H15.5051L15.2495 36.918ZM38.5839 36.918L38.3281 37.1738V41.9197V46.6656H39.1615H39.9949V42.4975V38.3295H42.495H44.9951V42.4975V46.6656H45.8285H46.6618V41.9197V37.1738L46.4061 36.918L46.1504 36.6622H42.495H38.8395L38.5839 36.918ZM3.5823 43.5869C3.33593 43.8333 3.32656 43.8944 3.32656 45.2542V46.6656H4.15993H4.9933V45.8319V44.9983H7.49341H9.99352V45.8319V46.6656H10.8269H11.6603V45.2542C11.6603 43.8944 11.6509 43.8333 11.4045 43.5869L11.1489 43.3311H7.49341H3.83793L3.5823 43.5869ZM26.9167 43.5869C26.6703 43.8333 26.6609 43.8944 26.6609 45.2542V46.6656H27.4943H28.3277V45.8319V44.9983H30.8278H33.3279V45.8319V46.6656H34.1613H34.9946V45.2542C34.9946 43.8944 34.9853 43.8333 34.7389 43.5869L34.4833 43.3311H30.8278H27.1723L26.9167 43.5869ZM0.826444 49.1664V50H24.9942H49.1619V49.1664V48.3328H24.9942H0.826444V49.1664Z" fill="#FF7210"/>
</svg>
