<svg width="50" height="50" viewBox="0 0 50 50" fill="none" xmlns="http://www.w3.org/2000/svg">
<path d="M30.8333 17.5V14.3021L31.7122 11.6655C32.2047 11.6566 32.6835 11.5023 33.0886 11.2222C33.4937 10.942 33.8071 10.5484 33.9893 10.0908C34.1715 9.63324 34.2145 9.13201 34.1129 8.65007C34.0112 8.16812 33.7695 7.72694 33.418 7.38189C33.0665 7.03684 32.6209 6.80331 32.1372 6.71061C31.6534 6.61791 31.1531 6.67017 30.6989 6.86083C30.2448 7.05149 29.8571 7.37205 29.5845 7.78228C29.3119 8.19251 29.1665 8.67412 29.1667 9.16667C29.1667 9.20073 29.1679 9.23448 29.1693 9.26812L27.8494 9.79604L26.9271 8.25802C27.2294 7.89245 27.4214 7.44843 27.4808 6.97781C27.5401 6.50719 27.4644 6.02939 27.2624 5.6002C27.0603 5.17102 26.7404 4.80817 26.3399 4.55402C25.9393 4.29988 25.4748 4.16492 25.0004 4.16492C24.5261 4.16492 24.0615 4.29988 23.661 4.55402C23.2605 4.80817 22.9405 5.17102 22.7385 5.6002C22.5365 6.02939 22.4607 6.50719 22.5201 6.97781C22.5794 7.44843 22.7715 7.89245 23.0737 8.25802L22.151 9.79604L20.8311 9.26812C20.8325 9.23448 20.8337 9.20073 20.8337 9.16667C20.8339 8.67412 20.6885 8.19251 20.4159 7.78228C20.1433 7.37205 19.7556 7.05149 19.3015 6.86083C18.8473 6.67017 18.347 6.61791 17.8632 6.71061C17.3795 6.80331 16.9339 7.03684 16.5824 7.38189C16.2309 7.72694 15.9892 8.16812 15.8876 8.65007C15.7859 9.13201 15.8289 9.63324 16.0111 10.0908C16.1934 10.5484 16.5067 10.942 16.9118 11.2222C17.3169 11.5023 17.7958 11.6566 18.2882 11.6655L19.1667 14.3021V17.5C19.1667 17.721 19.2545 17.933 19.4107 18.0893C19.567 18.2455 19.779 18.3333 20 18.3333H30C30.221 18.3333 30.433 18.2455 30.5893 18.0893C30.7455 17.933 30.8333 17.721 30.8333 17.5ZM31.6667 8.33333C31.8315 8.33333 31.9926 8.38221 32.1296 8.47377C32.2667 8.56534 32.3735 8.69549 32.4366 8.84776C32.4996 9.00004 32.5161 9.16759 32.484 9.32924C32.4518 9.49089 32.3725 9.63938 32.2559 9.75592C32.1394 9.87247 31.9909 9.95183 31.8292 9.98399C31.6676 10.0161 31.5 9.99964 31.3478 9.93657C31.1955 9.87349 31.0653 9.76668 30.9738 9.62964C30.8822 9.4926 30.8333 9.33148 30.8333 9.16667C30.8336 8.94573 30.9215 8.73391 31.0777 8.57769C31.2339 8.42146 31.4457 8.33358 31.6667 8.33333ZM25 5.83333C25.1648 5.83333 25.3259 5.88221 25.463 5.97378C25.6 6.06534 25.7068 6.19549 25.7699 6.34776C25.833 6.50004 25.8495 6.66759 25.8173 6.82924C25.7852 6.99089 25.7058 7.13938 25.5893 7.25592C25.4727 7.37247 25.3242 7.45183 25.1626 7.48399C25.0009 7.51614 24.8334 7.49964 24.6811 7.43657C24.5288 7.37349 24.3987 7.26668 24.3071 7.12964C24.2155 6.9926 24.1667 6.83148 24.1667 6.66667C24.1669 6.44573 24.2548 6.23391 24.411 6.07769C24.5672 5.92146 24.7791 5.83358 25 5.83333ZM22.1905 11.6071C22.3744 11.6806 22.5784 11.6863 22.7661 11.6231C22.9537 11.5599 23.1127 11.4319 23.2146 11.2621L24.5019 9.11625C24.8306 9.18292 25.1694 9.18292 25.4981 9.11625L26.7854 11.2621C26.8873 11.4319 27.0463 11.5599 27.2339 11.6231C27.4216 11.6863 27.6256 11.6806 27.8095 11.6071L29.7895 10.8154C29.8931 10.9333 30.0075 11.0412 30.1313 11.1378L29.3993 13.3333H20.6007L19.8687 11.1375C19.9925 11.0409 20.1069 10.933 20.2105 10.8151L22.1905 11.6071ZM17.5 9.16667C17.5 9.00185 17.5489 8.84073 17.6404 8.70369C17.732 8.56665 17.8622 8.45984 18.0144 8.39677C18.1667 8.33369 18.3343 8.31719 18.4959 8.34935C18.6576 8.3815 18.806 8.46087 18.9226 8.57741C19.0391 8.69395 19.1185 8.84244 19.1507 9.00409C19.1828 9.16574 19.1663 9.3333 19.1032 9.48557C19.0402 9.63784 18.9333 9.76799 18.7963 9.85956C18.6593 9.95113 18.4981 10 18.3333 10C18.1124 9.99975 17.9006 9.91187 17.7444 9.75565C17.5881 9.59942 17.5002 9.3876 17.5 9.16667ZM29.1667 16.6667H20.8333V15H29.1667V16.6667ZM47.4445 20C46.7966 20.0016 46.1735 20.2486 45.7004 20.6912C45.2273 21.1338 44.9394 21.7391 44.8946 22.3854L44.4746 28.6866C43.8988 28.4666 43.2717 28.4179 42.6689 28.5464C42.0661 28.6749 41.5134 28.9751 41.0774 29.4107L34.6548 35.8333H34.1667V31.6667C34.1667 31.4457 34.0789 31.2337 33.9226 31.0774C33.7663 30.9211 33.5543 30.8333 33.3333 30.8333H29.1667V25.9517C30.852 25.3514 32.3897 24.3982 33.677 23.1557C34.9642 21.9133 35.9713 20.4103 36.6308 18.7473L42.209 13.966C42.3002 13.8878 42.3735 13.7908 42.4237 13.6815C42.474 13.5723 42.5 13.4535 42.5 13.3333V8.33333C42.4981 6.9312 41.992 5.57652 41.074 4.51666C40.1561 3.45681 38.8875 2.7625 37.5 2.56052V0.833333C37.5 0.61232 37.4122 0.400358 37.2559 0.244078C37.0996 0.0877973 36.8877 0 36.6667 0H13.3333C13.1123 0 12.9004 0.0877973 12.7441 0.244078C12.5878 0.400358 12.5 0.61232 12.5 0.833333V2.56052C11.1125 2.7625 9.84392 3.45681 8.92595 4.51666C8.00798 5.57652 7.50185 6.9312 7.5 8.33333V13.3333C7.5 13.4535 7.52602 13.5723 7.57626 13.6815C7.62649 13.7908 7.69976 13.8878 7.79104 13.966L13.3692 18.7473C14.0287 20.4103 15.0358 21.9133 16.323 23.1557C17.6103 24.3982 19.148 25.3514 20.8333 25.9517V30.8333H16.6667C16.4457 30.8333 16.2337 30.9211 16.0774 31.0774C15.9211 31.2337 15.8333 31.4457 15.8333 31.6667V35.8333H15.3452L8.9226 29.4107C8.48637 28.9755 7.93356 28.6757 7.3308 28.5476C6.72805 28.4194 6.1011 28.4683 5.52552 28.6884L5.10542 22.3854C5.06144 21.7237 4.76198 21.1051 4.27029 20.6601C3.7786 20.2151 3.1332 19.9787 2.47042 20.0008C1.80765 20.0229 1.17941 20.3017 0.718431 20.7784C0.257452 21.2551 -0.000166413 21.8924 8.06512e-08 22.5555V33.3333C-1.40536e-05 33.4627 0.0301231 33.5903 0.0880208 33.706L4.16667 41.8634V45C3.94565 45 3.73369 45.0878 3.57741 45.2441C3.42113 45.4004 3.33333 45.6123 3.33333 45.8333V49.1667C3.33333 49.3877 3.42113 49.5996 3.57741 49.7559C3.73369 49.9122 3.94565 50 4.16667 50H15.8333C16.0543 50 16.2663 49.9122 16.4226 49.7559C16.5789 49.5996 16.6667 49.3877 16.6667 49.1667V45.8333C16.6667 45.6123 16.5789 45.4004 16.4226 45.2441C16.2663 45.0878 16.0543 45 15.8333 45V42.5H34.1667V45C33.9457 45 33.7337 45.0878 33.5774 45.2441C33.4211 45.4004 33.3333 45.6123 33.3333 45.8333V49.1667C33.3333 49.3877 33.4211 49.5996 33.5774 49.7559C33.7337 49.9122 33.9457 50 34.1667 50H45.8333C46.0543 50 46.2663 49.9122 46.4226 49.7559C46.5789 49.5996 46.6667 49.3877 46.6667 49.1667V45.8333C46.6667 45.6123 46.5789 45.4004 46.4226 45.2441C46.2663 45.0878 46.0543 45 45.8333 45V41.8634L49.912 33.706C49.9699 33.5903 50 33.4627 50 33.3333V22.5555C49.9992 21.878 49.7297 21.2284 49.2507 20.7493C48.7716 20.2703 48.122 20.0008 47.4445 20ZM34.1667 40.8333H15.8333V37.5H34.1667V40.8333ZM40.8333 8.33333V12.95L37.3775 15.9122C37.4589 15.3339 37.4998 14.7506 37.5 14.1667V4.25052C38.4404 4.44386 39.2854 4.95551 39.8926 5.69922C40.4998 6.44293 40.8321 7.37324 40.8333 8.33333ZM9.16667 12.95V8.33333C9.16794 7.37324 9.50017 6.44293 10.1074 5.69922C10.7145 4.95551 11.5596 4.44386 12.5 4.25052V14.1667C12.5002 14.7506 12.5411 15.3339 12.6225 15.9122L9.16667 12.95ZM14.1667 14.1667V1.66667H35.8333V14.1667C35.8333 17.0398 34.692 19.7953 32.6603 21.827C30.6287 23.8586 27.8732 25 25 25C22.1268 25 19.3713 23.8586 17.3397 21.827C15.308 19.7953 14.1667 17.0398 14.1667 14.1667ZM22.5 26.4153C24.1498 26.7505 25.8502 26.7505 27.5 26.4153V30.8333H22.5V26.4153ZM17.5 32.5H32.5V35.8333H17.5V32.5ZM15 48.3333H5V46.6667H15V48.3333ZM5.83333 45V41.6667C5.83335 41.5373 5.80321 41.4097 5.74531 41.294L1.66667 33.1366V22.5555C1.6667 22.3249 1.75634 22.1034 1.91667 21.9376C2.07699 21.7719 2.29546 21.675 2.52592 21.6673C2.75639 21.6596 2.98082 21.7418 3.15182 21.8965C3.32282 22.0512 3.42702 22.2663 3.4424 22.4964L3.94292 30.0043C3.57034 30.6153 3.41391 31.3338 3.49875 32.0444C3.58359 32.755 3.90478 33.4165 4.41073 33.9226L8.5774 38.0893C8.65478 38.1667 8.74665 38.228 8.84776 38.2699C8.94886 38.3118 9.05723 38.3334 9.16667 38.3334C9.2761 38.3334 9.38447 38.3118 9.48558 38.2699C9.58669 38.228 9.67855 38.1667 9.75594 38.0893C9.83332 38.0119 9.89471 37.92 9.93659 37.8189C9.97847 37.7178 10 37.6094 10 37.5C10 37.3906 9.97847 37.2822 9.93659 37.1811C9.89471 37.08 9.83332 36.9881 9.75594 36.9107L5.58927 32.7441C5.44778 32.6026 5.33555 32.4346 5.25898 32.2497C5.18241 32.0649 5.143 31.8668 5.143 31.6667C5.143 31.4666 5.18241 31.2684 5.25898 31.0836C5.33555 30.8987 5.44778 30.7308 5.58927 30.5893C5.73076 30.4478 5.89872 30.3356 6.08358 30.259C6.26844 30.1824 6.46658 30.143 6.66667 30.143C6.86676 30.143 7.06489 30.1824 7.24975 30.259C7.43461 30.3356 7.60258 30.4478 7.74406 30.5893L14.1667 37.0118V45H5.83333ZM45 48.3333H35V46.6667H45V48.3333ZM48.3333 33.1366L44.2547 41.294C44.1968 41.4097 44.1667 41.5373 44.1667 41.6667V45H35.8333V37.0118L42.2559 30.5893C42.5417 30.3035 42.9292 30.143 43.3333 30.143C43.7374 30.143 44.125 30.3035 44.4107 30.5893C44.6965 30.875 44.857 31.2626 44.857 31.6667C44.857 32.0708 44.6965 32.4583 44.4107 32.7441L40.2441 36.9107C40.1667 36.9881 40.1053 37.08 40.0634 37.1811C40.0215 37.2822 40 37.3906 40 37.5C40 37.6094 40.0215 37.7178 40.0634 37.8189C40.1053 37.92 40.1667 38.0119 40.2441 38.0893C40.3214 38.1667 40.4133 38.228 40.5144 38.2699C40.6155 38.3118 40.7239 38.3334 40.8333 38.3334C40.9428 38.3334 41.0511 38.3118 41.1522 38.2699C41.2534 38.228 41.3452 38.1667 41.4226 38.0893L45.5893 33.9226C46.0952 33.4165 46.4164 32.755 46.5012 32.0444C46.5861 31.3338 46.4297 30.6153 46.0571 30.0043L46.5571 22.4964C46.5725 22.2663 46.6767 22.0512 46.8477 21.8965C47.0187 21.7418 47.2431 21.6596 47.4736 21.6673C47.704 21.675 47.9225 21.7719 48.0828 21.9376C48.2431 22.1034 48.3328 22.3249 48.3328 22.5555L48.3333 33.1366Z" fill="white"/>
</svg>
