<svg width="61" height="60" viewBox="0 0 61 60" fill="none" xmlns="http://www.w3.org/2000/svg">
<path d="M59.9981 0H15.9982C15.733 0 15.4786 0.105356 15.2911 0.292892C15.1036 0.480428 14.9982 0.734781 14.9982 0.999996V22.5918C14.1712 21.6527 13.1354 20.9207 11.9741 20.4547C10.8127 19.9888 9.55822 19.8018 8.31147 19.9089C7.06471 20.016 5.86048 20.4141 4.79559 21.0713C3.73071 21.7285 2.83489 22.6264 2.18016 23.6927C1.52542 24.7591 1.13005 25.9643 1.02584 27.2113C0.921616 28.4583 1.11146 29.7123 1.58009 30.8726C2.04872 32.0329 2.78308 33.067 3.7241 33.8919C4.66513 34.7167 5.78657 35.3092 6.99825 35.6217V37.9999H3.99826C3.73305 37.9999 3.47869 38.1052 3.29116 38.2927C3.10362 38.4803 2.99827 38.7346 2.99827 38.9999V42.9998C2.99827 43.2651 3.10362 43.5194 3.29116 43.7069C3.47869 43.8945 3.73305 43.9998 3.99826 43.9998H4.99826V45.9998H3.99826C3.73305 45.9998 3.47869 46.1052 3.29116 46.2927C3.10362 46.4803 2.99827 46.7346 2.99827 46.9998V50.9998C2.99827 51.265 3.10362 51.5194 3.29116 51.7069C3.47869 51.8944 3.73305 51.9998 3.99826 51.9998V53.9998C3.73305 53.9998 3.47869 54.1052 3.29116 54.2927C3.10362 54.4802 2.99827 54.7346 2.99827 54.9998V58.9998C2.99827 59.265 3.10362 59.5193 3.29116 59.7069C3.47869 59.8944 3.73305 59.9998 3.99826 59.9998H59.9981C60.2633 59.9998 60.5176 59.8944 60.7052 59.7069C60.8927 59.5193 60.998 59.265 60.998 58.9998V0.999996C60.998 0.734781 60.8927 0.480428 60.7052 0.292892C60.5176 0.105356 60.2633 0 59.9981 0ZM2.99827 27.8749C2.99827 26.6882 3.35016 25.5282 4.00944 24.5415C4.66873 23.5548 5.6058 22.7858 6.70215 22.3316C7.7985 21.8775 9.0049 21.7587 10.1688 21.9902C11.3327 22.2217 12.4018 22.7932 13.2409 23.6323C14.08 24.4714 14.6514 25.5405 14.8829 26.7044C15.1144 27.8682 14.9956 29.0746 14.5415 30.171C14.0874 31.2673 13.3183 32.2044 12.3317 32.8637C11.345 33.523 10.1849 33.8749 8.99824 33.8749C7.40749 33.8731 5.88239 33.2404 4.75756 32.1156C3.63272 30.9907 3.00002 29.4657 2.99827 27.8749ZM14.1371 33.9999C14.4447 33.7411 14.7326 33.4597 14.9982 33.158V33.9999H14.1371ZM8.99824 35.9999H18.9982V37.9999H8.99824V35.9999ZM26.9982 41.9998H16.9982V39.9999H26.9982V41.9998ZM4.99826 39.9999H14.9982V41.9998H4.99826V39.9999ZM6.99825 43.9998H28.9982V45.9998H22.2813C20.8232 44.7111 18.9442 43.9998 16.9982 43.9998C15.0522 43.9998 13.1733 44.7111 11.7151 45.9998H6.99825V43.9998ZM24.9982 51.9998H27.9982V53.9998H24.7451C24.9135 53.3465 24.9986 52.6745 24.9982 51.9998ZM24.7451 49.9998C24.5631 49.2988 24.2861 48.6259 23.9219 47.9998H26.9982V49.9998H24.7451ZM16.9982 57.9998C15.8115 57.9998 14.6515 57.6479 13.6648 56.9886C12.6781 56.3293 11.9091 55.3923 11.455 54.2959C11.0008 53.1995 10.882 51.9931 11.1135 50.8293C11.345 49.6654 11.9165 48.5963 12.7556 47.7572C13.5947 46.9181 14.6638 46.3466 15.8277 46.1151C16.9916 45.8836 18.198 46.0024 19.2943 46.4565C20.3907 46.9107 21.3277 47.6797 21.987 48.6664C22.6463 49.6531 22.9982 50.8131 22.9982 51.9998C22.9964 53.5906 22.3637 55.1157 21.2389 56.2405C20.1141 57.3653 18.589 57.998 16.9982 57.9998ZM4.99826 47.9998H10.0745C9.71031 48.6259 9.43338 49.2988 9.25137 49.9998H4.99826V47.9998ZM5.99826 51.9998H8.99824C8.99784 52.6745 9.08289 53.3465 9.25137 53.9998H5.99826V51.9998ZM4.99826 55.9998H10.0745C10.5101 56.7505 11.0641 57.4258 11.7151 57.9998H4.99826V55.9998ZM22.2813 57.9998C22.9712 57.3922 23.5519 56.6709 23.9982 55.8673V55.9998H26.9982V57.9998H22.2813ZM58.9981 57.9998H28.9982V55.9998C29.2634 55.9998 29.5177 55.8944 29.7053 55.7069C29.8928 55.5194 29.9982 55.265 29.9982 54.9998V53.414L33.4123 49.9998H34.9981C35.2253 49.9999 35.4457 49.9226 35.6231 49.7807L40.1981 46.1206L42.682 46.9486C42.8505 47.0046 43.031 47.0149 43.2048 46.9782C43.3786 46.9415 43.5395 46.8592 43.671 46.7398L53.9981 37.3514V39.9999C53.9981 40.2651 54.1034 40.5194 54.291 40.707C54.4785 40.8945 54.7329 40.9998 54.9981 40.9998C55.2633 40.9998 55.5176 40.8945 55.7052 40.707C55.8927 40.5194 55.9981 40.2651 55.9981 39.9999V34.9999C55.9981 34.7347 55.8927 34.4803 55.7052 34.2928C55.5176 34.1052 55.2633 33.9999 54.9981 33.9999H49.9981C49.7329 33.9999 49.4785 34.1052 49.291 34.2928C49.1034 34.4803 48.9981 34.7347 48.9981 34.9999C48.9981 35.2651 49.1034 35.5194 49.291 35.707C49.4785 35.8945 49.7329 35.9999 49.9981 35.9999H52.5113L42.7587 44.866L40.3144 44.0511C40.1559 43.9982 39.9868 43.9859 39.8224 44.0152C39.658 44.0446 39.5035 44.1146 39.3731 44.219L34.6473 47.9998H32.9981C32.8668 47.9998 32.7368 48.0257 32.6155 48.0759C32.4941 48.1262 32.3839 48.1998 32.291 48.2927L29.9339 50.6498C29.8627 50.4591 29.7349 50.2947 29.5677 50.1785C29.4004 50.0624 29.2018 50 28.9982 49.9998V47.9998H29.9982C30.2634 47.9998 30.5177 47.8945 30.7053 47.7069C30.8928 47.5194 30.9982 47.265 30.9982 46.9998V42.9998C30.9982 42.7346 30.8928 42.4803 30.7053 42.2927C30.5177 42.1052 30.2634 41.9998 29.9982 41.9998H28.9982V38.9999C28.9982 38.7346 28.8928 38.4803 28.7053 38.2927C28.5177 38.1052 28.2634 37.9999 27.9982 37.9999H20.9982V34.9999C20.9982 34.7347 20.8928 34.4803 20.7053 34.2928C20.5178 34.1052 20.2634 33.9999 19.9982 33.9999H16.9982V1.99999H58.9981V57.9998ZM19.9982 12H55.9981C56.2633 12 56.5176 11.8946 56.7052 11.7071C56.8927 11.5195 56.9981 11.2652 56.9981 11V4.99998C56.9981 4.73477 56.8927 4.48041 56.7052 4.29288C56.5176 4.10534 56.2633 3.99998 55.9981 3.99998H19.9982C19.733 3.99998 19.4786 4.10534 19.2911 4.29288C19.1036 4.48041 18.9982 4.73477 18.9982 4.99998V11C18.9982 11.2652 19.1036 11.5195 19.2911 11.7071C19.4786 11.8946 19.733 12 19.9982 12ZM20.9982 5.99998H54.9981V9.99996H20.9982V5.99998ZM29.9982 13.9999C28.4159 13.9999 26.8692 14.4691 25.5536 15.3482C24.238 16.2272 23.2127 17.4767 22.6072 18.9385C22.0017 20.4003 21.8432 22.0088 22.1519 23.5606C22.4606 25.1125 23.2225 26.5379 24.3413 27.6568C25.4601 28.7756 26.8856 29.5375 28.4374 29.8462C29.9893 30.1549 31.5978 29.9964 33.0596 29.3909C34.5214 28.7854 35.7708 27.76 36.6499 26.4445C37.5289 25.1289 37.9981 23.5822 37.9981 21.9999C37.9958 19.8789 37.1521 17.8455 35.6524 16.3457C34.1526 14.8459 32.1192 14.0023 29.9982 13.9999ZM35.9981 21.986L30.9982 21.1527V16.0848C32.393 16.3223 33.6593 17.0444 34.574 18.1239C35.4886 19.2034 35.993 20.5711 35.9981 21.986ZM28.9982 16.0848V19.9193L26.0061 17.5257C26.8475 16.7727 27.8848 16.2731 28.9982 16.0848ZM29.9982 27.9999C28.9532 28.0005 27.9262 27.7281 27.0189 27.2095C26.1117 26.6909 25.3557 25.9443 24.8259 25.0436C24.2961 24.1428 24.0109 23.1193 23.9986 22.0743C23.9862 21.0294 24.2472 19.9994 24.7556 19.0864L29.3732 22.7808C29.5065 22.8875 29.665 22.9582 29.8334 22.9862L35.6676 23.9585C35.2591 25.1374 34.4938 26.1598 33.4779 26.884C32.4619 27.6082 31.2458 27.9982 29.9982 27.9999ZM56.9981 16.9999C56.9981 17.2652 56.8927 17.5195 56.7052 17.707C56.5176 17.8946 56.2633 17.9999 55.9981 17.9999H40.9981C40.7329 17.9999 40.4786 17.8946 40.291 17.707C40.1035 17.5195 39.9981 17.2652 39.9981 16.9999C39.9981 16.7347 40.1035 16.4804 40.291 16.2928C40.4786 16.1053 40.7329 15.9999 40.9981 15.9999H55.9981C56.2633 15.9999 56.5176 16.1053 56.7052 16.2928C56.8927 16.4804 56.9981 16.7347 56.9981 16.9999ZM56.9981 20.9999C56.9981 21.2651 56.8927 21.5195 56.7052 21.707C56.5176 21.8946 56.2633 21.9999 55.9981 21.9999H40.9981C40.7329 21.9999 40.4786 21.8946 40.291 21.707C40.1035 21.5195 39.9981 21.2651 39.9981 20.9999C39.9981 20.7347 40.1035 20.4804 40.291 20.2928C40.4786 20.1053 40.7329 19.9999 40.9981 19.9999H55.9981C56.2633 19.9999 56.5176 20.1053 56.7052 20.2928C56.8927 20.4804 56.9981 20.7347 56.9981 20.9999ZM56.9981 24.9999C56.9981 25.2651 56.8927 25.5195 56.7052 25.707C56.5176 25.8945 56.2633 25.9999 55.9981 25.9999H40.9981C40.7329 25.9999 40.4786 25.8945 40.291 25.707C40.1035 25.5195 39.9981 25.2651 39.9981 24.9999C39.9981 24.7347 40.1035 24.4803 40.291 24.2928C40.4786 24.1053 40.7329 23.9999 40.9981 23.9999H55.9981C56.2633 23.9999 56.5176 24.1053 56.7052 24.2928C56.8927 24.4803 56.9981 24.7347 56.9981 24.9999ZM56.9981 28.9999C56.9981 29.2651 56.8927 29.5195 56.7052 29.707C56.5176 29.8945 56.2633 29.9999 55.9981 29.9999H40.9981C40.7329 29.9999 40.4786 29.8945 40.291 29.707C40.1035 29.5195 39.9981 29.2651 39.9981 28.9999C39.9981 28.7347 40.1035 28.4803 40.291 28.2928C40.4786 28.1053 40.7329 27.9999 40.9981 27.9999H55.9981C56.2633 27.9999 56.5176 28.1053 56.7052 28.2928C56.8927 28.4803 56.9981 28.7347 56.9981 28.9999ZM8.99824 31.8749C8.73303 31.8749 8.47868 31.7695 8.29114 31.582C8.1036 31.3945 7.99825 31.1401 7.99825 30.8749C7.73303 30.8749 7.47868 30.7695 7.29114 30.582C7.10361 30.3945 6.99825 30.1401 6.99825 29.8749C6.99825 29.6097 7.10361 29.3553 7.29114 29.1678C7.47868 28.9802 7.73303 28.8749 7.99825 28.8749H8.99824C8.5581 28.8753 8.13013 28.7304 7.78079 28.4626C7.43145 28.1949 7.18028 27.8193 7.06628 27.3942C6.95229 26.9691 6.98185 26.5182 7.15037 26.1116C7.31889 25.705 7.61694 25.3654 7.99825 25.1455V24.8749C7.99825 24.6097 8.1036 24.3553 8.29114 24.1678C8.47868 23.9803 8.73303 23.8749 8.99824 23.8749C9.26346 23.8749 9.51781 23.9803 9.70535 24.1678C9.89288 24.3553 9.99824 24.6097 9.99824 24.8749C10.2635 24.8749 10.5178 24.9803 10.7053 25.1678C10.8929 25.3553 10.9982 25.6097 10.9982 25.8749C10.9982 26.1401 10.8929 26.3945 10.7053 26.582C10.5178 26.7695 10.2635 26.8749 9.99824 26.8749H8.99824C9.43839 26.8745 9.86636 27.0194 10.2157 27.2871C10.565 27.5549 10.8162 27.9305 10.9302 28.3556C11.0442 28.7807 11.0146 29.2316 10.8461 29.6382C10.6776 30.0448 10.3795 30.3844 9.99824 30.6043V30.8749C9.99824 31.1401 9.89288 31.3945 9.70535 31.582C9.51781 31.7695 9.26346 31.8749 8.99824 31.8749ZM17.9982 50.9998H16.9982C17.4384 50.9994 17.8663 51.1443 18.2157 51.412C18.565 51.6798 18.8162 52.0554 18.9302 52.4805C19.0442 52.9056 19.0146 53.3565 18.8461 53.7631C18.6776 54.1697 18.3795 54.5093 17.9982 54.7292V54.9998C17.9982 55.265 17.8929 55.5194 17.7053 55.7069C17.5178 55.8944 17.2634 55.9998 16.9982 55.9998C16.733 55.9998 16.4786 55.8944 16.2911 55.7069C16.1036 55.5194 15.9982 55.265 15.9982 54.9998C15.733 54.9998 15.4786 54.8944 15.2911 54.7069C15.1036 54.5194 14.9982 54.265 14.9982 53.9998C14.9982 53.7346 15.1036 53.4802 15.2911 53.2927C15.4786 53.1052 15.733 52.9998 15.9982 52.9998H16.9982C16.5581 53.0002 16.1301 52.8553 15.7808 52.5876C15.4314 52.3198 15.1802 51.9442 15.0663 51.5191C14.9523 51.094 14.9818 50.6431 15.1503 50.2365C15.3189 49.8299 15.6169 49.4903 15.9982 49.2704V48.9998C15.9982 48.7346 16.1036 48.4802 16.2911 48.2927C16.4786 48.1052 16.733 47.9998 16.9982 47.9998C17.2634 47.9998 17.5178 48.1052 17.7053 48.2927C17.8929 48.4802 17.9982 48.7346 17.9982 48.9998C18.2634 48.9998 18.5178 49.1052 18.7053 49.2927C18.8929 49.4802 18.9982 49.7346 18.9982 49.9998C18.9982 50.265 18.8929 50.5194 18.7053 50.7069C18.5178 50.8945 18.2634 50.9998 17.9982 50.9998Z" fill="#FE8C12"/>
</svg>
