<svg width="50" height="50" viewBox="0 0 50 50" fill="none" xmlns="http://www.w3.org/2000/svg">
<path d="M49.1667 0H45C44.779 0 44.567 0.0877977 44.4107 0.244079C44.2544 0.400359 44.1666 0.612322 44.1666 0.833336C44.1666 1.05435 44.2544 1.26631 44.4107 1.42259C44.567 1.57888 44.779 1.66667 45 1.66667H47.1548L43.8214 5.00002H41.5233C41.4108 4.67927 41.234 4.38484 41.0038 4.13473C40.7736 3.88463 40.4948 3.68409 40.1844 3.54538C39.8741 3.40668 39.5387 3.33271 39.1989 3.32802C38.859 3.32332 38.5217 3.38798 38.2076 3.51806C37.8936 3.64814 37.6094 3.84089 37.3723 4.08455C37.1353 4.3282 36.9505 4.61763 36.8291 4.93514C36.7077 5.25266 36.6524 5.59159 36.6664 5.93122C36.6805 6.27085 36.7637 6.60405 36.9109 6.91044L21.077 22.7444C20.7607 22.5932 20.4162 22.5103 20.0658 22.501C19.7154 22.4917 19.3669 22.5562 19.0431 22.6903C18.7193 22.8245 18.4273 23.0253 18.1861 23.2796C17.9449 23.534 17.7599 23.8362 17.6432 24.1668H9.85652C9.74397 23.846 9.56719 23.5516 9.33699 23.3015C9.10678 23.0514 8.828 22.8508 8.51766 22.7121C8.20732 22.5734 7.87196 22.4995 7.53207 22.4948C7.19218 22.4901 6.8549 22.5547 6.54085 22.6848C6.22681 22.8149 5.94258 23.0076 5.70555 23.2513C5.46853 23.4949 5.28368 23.7844 5.16231 24.1019C5.04094 24.4194 4.98559 24.7583 4.99965 25.098C5.01372 25.4376 5.0969 25.7708 5.2441 26.0772L0.244085 31.0772C0.0877998 31.2335 -5.70444e-09 31.4455 0 31.6665C5.70444e-09 31.8875 0.0878 32.0995 0.244085 32.2557C0.40037 32.412 0.612338 32.4998 0.833358 32.4998C1.05438 32.4998 1.26635 32.412 1.42263 32.2557L6.42265 27.2557C6.73891 27.4069 7.08344 27.4898 7.43385 27.4992C7.78425 27.5085 8.1327 27.444 8.45656 27.3098C8.78041 27.1757 9.07242 26.9749 9.31361 26.7206C9.5548 26.4662 9.73977 26.164 9.85652 25.8334H17.6432C17.7558 26.1542 17.9325 26.4486 18.1627 26.6987C18.3929 26.9488 18.6717 27.1494 18.9821 27.2881C19.2924 27.4268 19.6278 27.5007 19.9677 27.5054C20.3075 27.5101 20.6448 27.4455 20.9589 27.3154C21.2729 27.1853 21.5571 26.9926 21.7942 26.7489C22.0312 26.5053 22.216 26.2158 22.3374 25.8983C22.4588 25.5808 22.5141 25.2419 22.5001 24.9022C22.486 24.5626 22.4028 24.2294 22.2556 23.923L38.0895 8.08961C38.4058 8.24075 38.7504 8.32366 39.1008 8.33293C39.4512 8.3422 39.7997 8.27764 40.1236 8.14344C40.4474 8.00924 40.7394 7.80841 40.9805 7.55399C41.2217 7.29957 41.4066 6.99725 41.5233 6.66669H44.1666C44.2761 6.6667 44.3844 6.64514 44.4856 6.60327C44.5867 6.56139 44.6785 6.50001 44.7559 6.42263L48.3333 2.84522V5.00002C48.3333 5.22103 48.4211 5.433 48.5774 5.58928C48.7337 5.74556 48.9456 5.83336 49.1667 5.83336C49.3877 5.83336 49.5996 5.74556 49.7559 5.58928C49.9122 5.433 50 5.22103 50 5.00002V0.833336C50 0.612322 49.9122 0.400359 49.7559 0.244079C49.5996 0.0877977 49.3877 0 49.1667 0ZM7.49984 25.8334C7.33502 25.8334 7.17391 25.7846 7.03686 25.693C6.89982 25.6014 6.79301 25.4713 6.72994 25.319C6.66687 25.1667 6.65036 24.9992 6.68252 24.8375C6.71467 24.6759 6.79404 24.5274 6.91058 24.4108C7.02713 24.2943 7.17561 24.2149 7.33727 24.1828C7.49892 24.1506 7.66647 24.1671 7.81875 24.2302C7.97102 24.2933 8.10117 24.4001 8.19274 24.5371C8.2843 24.6742 8.33318 24.8353 8.33318 25.0001C8.33293 25.221 8.24505 25.4329 8.08883 25.5891C7.9326 25.7453 7.72078 25.8332 7.49984 25.8334ZM19.9999 25.8334C19.8351 25.8334 19.674 25.7846 19.5369 25.693C19.3999 25.6014 19.2931 25.4713 19.23 25.319C19.1669 25.1667 19.1504 24.9992 19.1826 24.8375C19.2147 24.6759 19.2941 24.5274 19.4106 24.4108C19.5272 24.2943 19.6757 24.2149 19.8373 24.1828C19.999 24.1506 20.1665 24.1671 20.3188 24.2302C20.4711 24.2933 20.6012 24.4001 20.6928 24.5371C20.7844 24.6742 20.8332 24.8353 20.8332 25.0001C20.833 25.221 20.7451 25.4329 20.5889 25.5891C20.4326 25.7453 20.2208 25.8332 19.9999 25.8334ZM39.1666 6.66669C39.0018 6.66669 38.8407 6.61782 38.7037 6.52625C38.5666 6.43468 38.4598 6.30453 38.3967 6.15226C38.3337 5.99999 38.3172 5.83243 38.3493 5.67078C38.3815 5.50913 38.4608 5.36064 38.5774 5.2441C38.6939 5.12755 38.8424 5.04819 39.0041 5.01603C39.1657 4.98388 39.3333 5.00038 39.4855 5.06345C39.6378 5.12653 39.768 5.23334 39.8595 5.37038C39.9511 5.50742 40 5.66854 40 5.83336C39.9997 6.05429 39.9118 6.26611 39.7556 6.42234C39.5994 6.57857 39.3876 6.66644 39.1666 6.66669ZM9.99985 50.0002C10.2209 50.0002 10.4328 49.9124 10.5891 49.7561C10.7454 49.5998 10.8332 49.3879 10.8332 49.1669V32.5001C10.8332 32.2791 10.7454 32.0671 10.5891 31.9109C10.4328 31.7546 10.2209 31.6668 9.99985 31.6668H4.99983C4.77882 31.6668 4.56686 31.7546 4.41057 31.9109C4.25429 32.0671 4.1665 32.2791 4.1665 32.5001V49.1669C4.1665 49.3879 4.25429 49.5998 4.41057 49.7561C4.56686 49.9124 4.77882 50.0002 4.99983 50.0002H9.99985ZM5.83317 33.3335H9.16651V48.3335H5.83317V33.3335ZM19.1666 50.0002C19.3876 50.0002 19.5995 49.9124 19.7558 49.7561C19.9121 49.5998 19.9999 49.3879 19.9999 49.1669V30.0001C19.9999 29.7791 19.9121 29.5671 19.7558 29.4109C19.5995 29.2546 19.3876 29.1668 19.1666 29.1668H14.1665C13.9455 29.1668 13.7336 29.2546 13.5773 29.4109C13.421 29.5671 13.3332 29.7791 13.3332 30.0001V49.1669C13.3332 49.3879 13.421 49.5998 13.5773 49.7561C13.7336 49.9124 13.9455 50.0002 14.1665 50.0002H19.1666ZM14.9999 30.8335H18.3332V48.3335H14.9999V30.8335ZM28.3333 28.3334H23.3332C23.1122 28.3334 22.9003 28.4212 22.744 28.5775C22.5877 28.7338 22.4999 28.9458 22.4999 29.1668V49.1669C22.4999 49.3879 22.5877 49.5998 22.744 49.7561C22.9003 49.9124 23.1122 50.0002 23.3332 50.0002H28.3333C28.5543 50.0002 28.7662 49.9124 28.9225 49.7561C29.0788 49.5998 29.1666 49.3879 29.1666 49.1669V29.1668C29.1666 28.9458 29.0788 28.7338 28.9225 28.5775C28.7662 28.4212 28.5543 28.3334 28.3333 28.3334ZM27.4999 48.3335H24.1666V30.0001H27.4999V48.3335ZM38.3311 49.1669V17.5001C38.3311 17.3909 38.3096 17.2828 38.2678 17.182C38.2261 17.0812 38.1648 16.9895 38.0877 16.9124C38.0105 16.8352 37.9189 16.774 37.818 16.7322C37.7172 16.6904 37.6091 16.6689 37.5 16.6689H32.4999C32.3908 16.6689 32.2827 16.6904 32.1819 16.7322C32.081 16.774 31.9894 16.8352 31.9122 16.9124C31.835 16.9895 31.7738 17.0812 31.7321 17.182C31.6903 17.2828 31.6688 17.3909 31.6688 17.5001V49.1669C31.6688 49.3873 31.7564 49.5987 31.9122 49.7546C32.0681 49.9104 32.2795 49.998 32.4999 49.998H37.5C37.7204 49.998 37.9318 49.9104 38.0877 49.7546C38.2435 49.5987 38.3311 49.3873 38.3311 49.1669ZM36.6688 48.3357H33.3311V18.3312H36.6688V48.3357ZM47.4978 49.1669V10.8334C47.4978 10.6129 47.4102 10.4016 47.2543 10.2457C47.0985 10.0898 46.8871 10.0023 46.6667 10.0022H41.6666C41.4462 10.0023 41.2348 10.0898 41.079 10.2457C40.9231 10.4016 40.8355 10.6129 40.8355 10.8334V49.1669C40.8355 49.3873 40.9231 49.5987 41.079 49.7545C41.2348 49.9104 41.4462 49.998 41.6666 49.998H46.6667C46.8871 49.998 47.0985 49.9104 47.2543 49.7545C47.4102 49.5987 47.4978 49.3873 47.4978 49.1669ZM45.8355 48.3357H42.4978V11.6645H45.8355V48.3357Z" fill="#FE8C12"/>
</svg>
