<svg width="50" height="50" viewBox="0 0 50 50" fill="none" xmlns="http://www.w3.org/2000/svg">
<path d="M9.99955 34.1666C9.99955 34.3315 9.95068 34.4926 9.85911 34.6296C9.76754 34.7667 9.63739 34.8735 9.48512 34.9365C9.33285 34.9996 9.16529 35.0161 9.00364 34.984C8.84199 34.9518 8.69351 34.8724 8.57696 34.7559C8.46042 34.6393 8.38105 34.4909 8.3489 34.3292C8.31674 34.1676 8.33324 34 8.39632 33.8477C8.45939 33.6955 8.5662 33.5653 8.70324 33.4737C8.84028 33.3822 9.0014 33.3333 9.16622 33.3333C9.38723 33.3333 9.59919 33.4211 9.75547 33.5774C9.91175 33.7337 9.99955 33.9456 9.99955 34.1666ZM39.9995 35C40.1643 35 40.3255 34.9511 40.4625 34.8595C40.5995 34.768 40.7063 34.6378 40.7694 34.4855C40.8325 34.3333 40.849 34.1657 40.8168 34.0041C40.7847 33.8424 40.7053 33.6939 40.5888 33.5774C40.4722 33.4608 40.3237 33.3815 40.1621 33.3493C40.0004 33.3172 39.8329 33.3337 39.6806 33.3967C39.5283 33.4598 39.3982 33.5666 39.3066 33.7037C39.2151 33.8407 39.1662 34.0018 39.1662 34.1666C39.1662 34.3876 39.254 34.5996 39.4103 34.7559C39.5665 34.9122 39.7785 35 39.9995 35ZM23.3329 34.1666C23.3329 34.0018 23.284 33.8407 23.1924 33.7037C23.1009 33.5666 22.9707 33.4598 22.8184 33.3967C22.6662 33.3337 22.4986 33.3172 22.337 33.3493C22.1753 33.3815 22.0268 33.4608 21.9103 33.5774C21.7937 33.6939 21.7144 33.8424 21.6822 34.0041C21.6501 34.1657 21.6666 34.3333 21.7296 34.4855C21.7927 34.6378 21.8995 34.768 22.0366 34.8595C22.1736 34.9511 22.3347 35 22.4995 35C22.7206 35 22.9325 34.9122 23.0888 34.7559C23.2451 34.5996 23.3329 34.3876 23.3329 34.1666ZM27.4995 33.3333C27.3347 33.3333 27.1736 33.3822 27.0366 33.4737C26.8995 33.5653 26.7927 33.6955 26.7296 33.8477C26.6666 34 26.6501 34.1676 26.6822 34.3292C26.7144 34.4909 26.7937 34.6393 26.9103 34.7559C27.0268 34.8724 27.1753 34.9518 27.337 34.984C27.4986 35.0161 27.6662 34.9996 27.8184 34.9365C27.9707 34.8735 28.1009 34.7667 28.1924 34.6296C28.284 34.4926 28.3329 34.3315 28.3329 34.1666C28.3329 33.9456 28.2451 33.7337 28.0888 33.5774C27.9325 33.4211 27.7205 33.3333 27.4995 33.3333ZM49.9995 29.158V49.1666C49.9995 49.3876 49.9117 49.5996 49.7554 49.7559C49.5992 49.9122 49.3872 50 49.1662 50H38.3329C38.1118 50 37.8999 49.9122 37.7436 49.7559C37.5873 49.5996 37.4995 49.3876 37.4995 49.1666V46.6666C37.4996 46.5021 37.5483 46.3412 37.6395 46.2043L39.1662 43.9143V41.8819C38.5691 41.6161 38.038 41.2219 37.6107 40.7275C37.0289 40.0285 36.6839 39.163 36.6255 38.2555C36.4484 38.2323 36.255 38.2027 36.0609 38.1653C35.5846 38.0735 34.1353 37.7941 34.1353 36.6666C34.1353 36.161 34.4458 35.5218 35.0915 34.2389C35.6123 33.2048 36.2551 31.9259 36.6662 30.6973V29.1666C36.6674 28.0619 37.1067 27.0028 37.8879 26.2217C38.669 25.4405 39.7281 25.0012 40.8329 25H42.4995V9.99999H39.1662V20.8333C39.1662 21.0543 39.0784 21.2663 38.9221 21.4226C38.7658 21.5789 38.5539 21.6666 38.3329 21.6666H25.8329V25H29.9995C30.109 25 30.2173 25.0215 30.3184 25.0634C30.4195 25.1053 30.5114 25.1667 30.5888 25.244L32.2555 26.9107C32.3328 26.9881 32.3942 27.08 32.4361 27.1811C32.478 27.2822 32.4995 27.3905 32.4995 27.5V35.8333C32.4991 37.0487 32.2032 38.2457 31.6372 39.3213C31.0713 40.3969 30.2523 41.3187 29.2509 42.0074L29.3296 42.4014L35.338 45.0717C35.4853 45.1372 35.6104 45.244 35.6983 45.3792C35.7861 45.5143 35.8329 45.6721 35.8329 45.8333V49.1666C35.8329 49.3876 35.7451 49.5996 35.5888 49.7559C35.4325 49.9122 35.2205 50 34.9995 50H14.1662C13.9452 50 13.7332 49.9122 13.577 49.7559C13.4207 49.5996 13.3329 49.3876 13.3329 49.1666V45.8333C13.3329 45.6667 13.3828 45.504 13.4762 45.3661C13.5695 45.2282 13.7021 45.1214 13.8567 45.0595L20.6839 42.3287L20.7482 42.0074C19.7468 41.3187 18.9278 40.3969 18.3619 39.3213C17.7959 38.2457 17.5 37.0487 17.4995 35.8333V27.5C17.4995 27.3905 17.5211 27.2822 17.563 27.1811C17.6048 27.08 17.6662 26.9881 17.7436 26.9107L19.4103 25.244C19.4877 25.1667 19.5795 25.1053 19.6806 25.0634C19.7817 25.0215 19.8901 25 19.9995 25H24.1662V21.6666H11.6662C11.4452 21.6666 11.2332 21.5789 11.077 21.4226C10.9207 21.2663 10.8329 21.0543 10.8329 20.8333V9.99999H7.49955V25H15.8329C15.9837 25 16.1317 25.0409 16.2611 25.1184C16.3905 25.196 16.4964 25.3071 16.5676 25.4401C16.6388 25.5731 16.6725 25.7229 16.6652 25.8736C16.6579 26.0242 16.6099 26.1701 16.5262 26.2956L13.2312 31.2381C13.253 31.2951 13.2738 31.3527 13.2926 31.4106C13.7186 32.7302 14.4089 33.8382 14.9636 34.7285C15.4871 35.5686 15.8329 36.1237 15.8329 36.6666C15.8329 37.7941 14.3835 38.0735 13.9073 38.1653C13.7131 38.2027 13.52 38.2323 13.3427 38.2555C13.2842 39.163 12.9393 40.0285 12.3575 40.7275C11.9378 41.2134 11.4176 41.6024 10.8329 41.8676V43.1979L11.6235 45.5695C11.6518 45.6546 11.6662 45.7437 11.6662 45.8333V49.1666C11.6662 49.3876 11.5784 49.5996 11.4221 49.7559C11.2659 49.9122 11.0539 50 10.8329 50H0.832892C0.611878 50 0.399917 49.9122 0.243636 49.7559C0.0873562 49.5996 -0.000441027 49.3876 -0.000441027 49.1666V47.5C-0.000445015 47.3905 0.0211063 47.2822 0.0629826 47.181C0.104859 47.0799 0.16624 46.9881 0.243621 46.9107L4.16622 42.9882V41.6209C3.11935 40.9782 2.28445 39.9895 1.69383 38.6748C1.19746 37.5348 0.906731 36.3161 0.835079 35.0749L0.00789229 29.2846C0.00189326 29.2426 -0.000892629 29.2003 -0.000441027 29.158C0.0146631 27.7198 0.730496 25 3.33289 25H5.83289V9.16666C5.83289 8.94565 5.92068 8.73368 6.07696 8.5774C6.23324 8.42112 6.44521 8.33333 6.66622 8.33333H10.8329V5H9.99955C9.77854 5 9.56657 4.9122 9.41029 4.75592C9.25401 4.59964 9.16622 4.38768 9.16622 4.16666V0.833333C9.16622 0.612319 9.25401 0.400358 9.41029 0.244077C9.56657 0.0877973 9.77854 0 9.99955 0H39.9995C40.2205 0 40.4325 0.0877973 40.5888 0.244077C40.7451 0.400358 40.8329 0.612319 40.8329 0.833333V4.16666C40.8329 4.38768 40.7451 4.59964 40.5888 4.75592C40.4325 4.9122 40.2205 5 39.9995 5H39.1662V8.33333H43.3329C43.5539 8.33333 43.7658 8.42112 43.9221 8.5774C44.0784 8.73368 44.1662 8.94565 44.1662 9.16666V25H46.6662C49.2686 25 49.9844 27.7198 49.9995 29.158ZM9.99955 48.3333V46.3828L5.18987 44.3215L1.66622 47.8451V48.3333H9.99955ZM9.16622 43.3333V42.3688C8.61528 42.4588 8.05779 42.5027 7.49955 42.5C6.93838 42.5029 6.37886 42.4388 5.83289 42.309V42.7838L9.45538 44.3359L9.20893 43.5963C9.18072 43.5115 9.1663 43.4227 9.16622 43.3333ZM11.7065 31.9227C11.6777 31.8346 11.6417 31.7489 11.599 31.6666H7.13799L4.8808 35.4287C4.80677 35.5521 4.70203 35.6542 4.57681 35.7251C4.45158 35.796 4.31013 35.8333 4.16622 35.8333H2.58456C2.83185 37.4617 3.79122 40.8333 7.49955 40.8333C8.91559 40.8333 9.98528 40.5594 10.6918 40.0198C9.76382 39.9827 8.3733 39.7874 7.0882 39.058C6.896 38.9489 6.75502 38.7679 6.69628 38.5548C6.63754 38.3417 6.66584 38.114 6.77497 37.9218C6.88409 37.7296 7.0651 37.5887 7.27817 37.5299C7.49124 37.4712 7.71891 37.4995 7.91111 37.6086C9.56622 38.5481 11.5522 38.3408 11.5725 38.3386C11.6019 38.3354 11.6316 38.3338 11.6612 38.3337C11.6968 38.102 11.7022 37.8667 11.6773 37.6336C11.6585 37.518 11.6643 37.3998 11.6942 37.2866C11.7242 37.1735 11.7777 37.0679 11.8512 36.9767C11.9247 36.8856 12.0166 36.811 12.1209 36.7578C12.2252 36.7045 12.3395 36.6739 12.4564 36.6678C12.9906 36.6417 13.5205 36.5596 14.0376 36.423C13.9107 36.19 13.7168 35.8787 13.5492 35.6098C12.9779 34.693 12.1957 33.4375 11.7065 31.9227ZM14.2758 26.6666H3.33289C1.84331 26.6666 1.68466 28.7353 1.6681 29.12L2.38893 34.1666H3.69445L5.95164 30.4046C6.02568 30.2812 6.13041 30.179 6.25563 30.1081C6.38086 30.0372 6.52231 30 6.66622 30H12.0536L14.2758 26.6666ZM24.1662 43.2859C23.5216 43.2142 22.8891 43.0585 22.2849 42.8227L21.8954 44.7708L24.1662 44.3165V43.2859ZM14.9995 48.3333H24.1662V46.0164L20.9963 46.6505C20.8618 46.6774 20.7227 46.6707 20.5914 46.6309C20.4601 46.5912 20.3406 46.5196 20.2436 46.4226C20.1466 46.3256 20.075 46.2061 20.0352 46.0748C19.9955 45.9435 19.9888 45.8044 20.0157 45.6699L20.2937 44.2798L14.9995 46.3975V48.3333ZM29.7301 44.4032L29.9834 45.6699C30.0103 45.8044 30.0036 45.9435 29.9638 46.0748C29.9241 46.2061 29.8525 46.3256 29.7555 46.4226C29.6585 46.5196 29.539 46.5912 29.4077 46.6309C29.2764 46.6707 29.1373 46.6774 29.0028 46.6505L25.8329 46.0164V48.3333H34.1662V46.375L29.7301 44.4032ZM27.7142 42.8229C27.11 43.0586 26.4775 43.2143 25.8329 43.2859V44.3172L28.1037 44.7714L27.7142 42.8229ZM30.8296 35.9593L29.3989 31.6666H20.6002L19.1694 35.9591C19.2023 37.4836 19.831 38.9346 20.9207 40.0011C22.0105 41.0677 23.4747 41.6649 24.9995 41.6649C26.5244 41.6649 27.9885 41.0677 29.0783 40.0011C30.1681 38.9346 30.7968 37.4836 30.8296 35.9591V35.9593ZM29.6544 26.6666H20.3446L19.1662 27.8451V30.6979L19.2089 30.5696C19.2643 30.4037 19.3704 30.2594 19.5123 30.1572C19.6542 30.0549 19.8247 29.9999 19.9995 30H29.9995C30.1744 30 30.3449 30.055 30.4868 30.1572C30.6287 30.2595 30.7348 30.4038 30.7902 30.5698L30.8329 30.6979V27.8451L29.6544 26.6666ZM10.8329 3.33333H39.1662V1.66667H10.8329V3.33333ZM12.4995 5V18.233L14.2787 15.7422C14.1053 15.1855 14.1321 14.5857 14.3543 14.0466C14.5766 13.5076 14.9803 13.0632 15.4957 12.7904C16.011 12.5177 16.6055 12.4337 17.1762 12.5531C17.7469 12.6725 18.258 12.9876 18.6208 13.4441L22.0244 12.5931L23.7105 10.4856C23.5253 10.1875 23.4049 9.85378 23.3573 9.5061C23.3096 9.15843 23.3357 8.80461 23.4339 8.46769C23.532 8.13076 23.7001 7.81829 23.927 7.5506C24.1539 7.28291 24.4347 7.06602 24.751 6.91403C25.0673 6.76204 25.412 6.67836 25.7628 6.66845C26.1136 6.65854 26.4626 6.72262 26.7869 6.85651C27.1113 6.99039 27.4039 7.19109 27.6456 7.44554C27.8872 7.69999 28.0726 8.00248 28.1896 8.33333H31.3885L35.8329 5H12.4995ZM25.8329 9.99999C25.9977 9.99999 26.1588 9.95112 26.2958 9.85955C26.4329 9.76798 26.5397 9.63783 26.6028 9.48556C26.6658 9.33329 26.6823 9.16573 26.6502 9.00408C26.618 8.84243 26.5387 8.69395 26.4221 8.5774C26.3056 8.46086 26.1571 8.38149 25.9954 8.34934C25.8338 8.31718 25.6662 8.33369 25.514 8.39676C25.3617 8.45983 25.2315 8.56664 25.14 8.70368C25.0484 8.84072 24.9995 9.00184 24.9995 9.16666C24.9998 9.3876 25.0877 9.59941 25.2439 9.75564C25.4001 9.91187 25.6119 9.99974 25.8329 9.99999ZM16.6662 15.8333C16.831 15.8333 16.9921 15.7844 17.1292 15.6929C17.2662 15.6013 17.373 15.4712 17.4361 15.3189C17.4992 15.1666 17.5157 14.9991 17.4835 14.8374C17.4514 14.6758 17.372 14.5273 17.2555 14.4107C17.1389 14.2942 16.9904 14.2148 16.8288 14.1827C16.6671 14.1505 16.4996 14.167 16.3473 14.2301C16.195 14.2932 16.0649 14.4 15.9733 14.537C15.8818 14.6741 15.8329 14.8352 15.8329 15C15.8331 15.2209 15.921 15.4327 16.0772 15.589C16.2335 15.7452 16.4453 15.8331 16.6662 15.8333ZM13.2855 20H17.4995V17.5C17.4998 17.4503 17.5044 17.4008 17.5134 17.352C17.1577 17.4803 16.7774 17.5261 16.4014 17.4858C16.0253 17.4455 15.6634 17.3203 15.3429 17.1196L13.2855 20ZM20.8329 20V18.3333H19.1662V20H20.8329ZM27.4995 20V15.8333H25.8329V20H27.4995ZM34.1662 20V13.3333H32.4995V20H34.1662ZM37.4995 20V5.83333L32.1662 9.83332C32.0219 9.94151 31.8465 9.99999 31.6662 9.99999H28.1895C27.9696 10.6232 27.5117 11.1338 26.916 11.4201C26.3204 11.7064 25.6355 11.745 25.0115 11.5274L23.1503 13.8542C23.0363 13.9967 22.8787 14.0978 22.7016 14.1421L19.1656 15.0261C19.1598 15.6324 18.9329 16.2157 18.5276 16.6667H21.6662C21.8872 16.6667 22.0992 16.7544 22.2555 16.9107C22.4117 17.067 22.4995 17.279 22.4995 17.5V20H24.1662V15C24.1662 14.779 24.254 14.567 24.4103 14.4107C24.5666 14.2545 24.7785 14.1667 24.9995 14.1667H28.3329C28.5539 14.1667 28.7658 14.2545 28.9221 14.4107C29.0784 14.567 29.1662 14.779 29.1662 15V20H30.8329V12.5C30.8329 12.279 30.9207 12.067 31.0769 11.9107C31.2332 11.7545 31.4452 11.6667 31.6662 11.6667H34.9995C35.2205 11.6667 35.4325 11.7545 35.5888 11.9107C35.7451 12.067 35.8329 12.279 35.8329 12.5V20H37.4995ZM38.3329 30H43.3329C43.5379 30 43.7358 30.0756 43.8886 30.2123C44.0414 30.3491 44.1384 30.5374 44.1611 30.7412L45.7453 45H48.3328V29.1736C48.3298 29.0238 48.2558 26.6666 46.6662 26.6666H40.8329C40.17 26.6674 39.5346 26.931 39.0659 27.3997C38.5972 27.8684 38.3336 28.5038 38.3329 29.1666V30ZM38.1172 36.9771C38.1906 37.0681 38.244 37.1736 38.274 37.2867C38.304 37.3997 38.3098 37.5178 38.2912 37.6333C38.2524 38.039 38.2988 38.4484 38.4274 38.8352L38.5618 38.3651L38.552 38.3623C38.8507 38.4312 39.1628 38.4151 39.4528 38.3156C39.7428 38.2162 39.9991 38.0375 40.1926 37.7998C40.3346 37.6314 40.5373 37.526 40.7567 37.5067C40.976 37.4874 41.1941 37.5556 41.3633 37.6966C41.5325 37.8376 41.639 38.0397 41.6595 38.259C41.6801 38.4782 41.6131 38.6967 41.4731 38.8666C41.2072 39.1957 40.8789 39.4691 40.5071 39.6709C40.1352 39.8728 39.7272 39.9992 39.3064 40.043C40.0132 40.5676 41.073 40.8333 42.4683 40.8333C42.8461 40.8349 43.2232 40.7973 43.5933 40.7211L42.587 31.6666H38.092C37.6522 32.8578 37.0653 34.0246 36.5802 34.9883C36.3348 35.4755 36.0454 36.0508 35.8966 36.4126C36.4243 36.5564 36.9661 36.6419 37.5124 36.6678C37.6293 36.674 37.7436 36.7047 37.8478 36.758C37.952 36.8113 38.0438 36.8859 38.1172 36.9771ZM40.8329 42.3743V44.1666C40.8328 44.3312 40.7841 44.492 40.6929 44.6289L39.8035 45.9631L43.9767 44.1744L43.7777 42.3828C43.3457 42.4616 42.9074 42.5008 42.4683 42.5C41.9206 42.5025 41.3737 42.4605 40.8329 42.3743ZM48.3328 48.3333V46.6666H44.9995C44.7944 46.6666 44.5966 46.591 44.4438 46.4543C44.291 46.3175 44.194 46.1292 44.1713 45.9254L44.1691 45.9054L39.1662 48.0494V48.3333H48.3328ZM22.0374 39.0267C22.9139 39.6134 23.9449 39.9265 24.9996 39.9265C26.0543 39.9265 27.0853 39.6134 27.9618 39.0267C28.0541 38.9666 28.1334 38.8887 28.1954 38.7976C28.2574 38.7066 28.3006 38.6042 28.3228 38.4963C28.3449 38.3884 28.3454 38.2772 28.3243 38.1691C28.3032 38.061 28.2609 37.9582 28.1998 37.8666C28.1387 37.7749 28.0601 37.6963 27.9684 37.6353C27.8768 37.5742 27.7739 37.5319 27.6658 37.5109C27.5577 37.4898 27.4465 37.4904 27.3386 37.5126C27.2308 37.5347 27.1284 37.5781 27.0373 37.6401C26.4343 38.0436 25.7251 38.259 24.9996 38.259C24.274 38.259 23.5648 38.0436 22.9618 37.6401C22.7779 37.5201 22.5541 37.4775 22.339 37.5216C22.1239 37.5658 21.9349 37.693 21.8131 37.8757C21.6913 38.0584 21.6465 38.2818 21.6885 38.4973C21.7305 38.7129 21.8559 38.9031 22.0374 39.0267Z" fill="#FF7210"/>
</svg>
