<svg width="163" height="46" viewBox="0 0 163 46" fill="none" xmlns="http://www.w3.org/2000/svg">
<path d="M69.1143 18.1104C70.9209 18.1104 72.3516 18.8672 73.4062 20.3809C74.4707 21.8945 75.0029 23.9893 75.0029 26.665C75.0029 29.3604 74.4658 31.4746 73.3916 33.0078C72.3271 34.5312 70.8428 35.293 68.9385 35.293C68.3232 35.293 67.7764 35.2246 67.2979 35.0879C66.8193 34.9609 66.3896 34.7803 66.0088 34.5459C65.6377 34.3115 65.2031 33.9209 64.7051 33.374H64.3535L63.4453 35H58.9775V12.207H64.7051V17.3633C64.7051 17.9785 64.6367 19.0381 64.5 20.542H64.7051C65.2617 19.6826 65.9014 19.0625 66.624 18.6816C67.3564 18.3008 68.1865 18.1104 69.1143 18.1104ZM67.0195 22.6074C66.2188 22.6074 65.6328 22.8857 65.2617 23.4424C64.8906 23.999 64.7051 24.873 64.7051 26.0645V26.8701C64.7051 28.2275 64.8906 29.2041 65.2617 29.7998C65.6328 30.3857 66.2383 30.6787 67.0781 30.6787C67.752 30.6787 68.2695 30.3369 68.6309 29.6533C68.9922 28.96 69.1729 27.9443 69.1729 26.6064C69.1729 23.9404 68.4551 22.6074 67.0195 22.6074ZM84.041 35H78.3135V18.4033H84.041V35ZM78.167 14.2725C78.167 13.4131 78.4062 12.7734 78.8848 12.3535C79.3633 11.9336 80.1348 11.7236 81.1992 11.7236C82.2637 11.7236 83.04 11.9385 83.5283 12.3682C84.0166 12.7979 84.2607 13.4326 84.2607 14.2725C84.2607 15.9521 83.2402 16.792 81.1992 16.792C79.1777 16.792 78.167 15.9521 78.167 14.2725ZM103.89 26.665C103.89 29.3799 103.157 31.499 101.692 33.0225C100.237 34.5361 98.1963 35.293 95.5693 35.293C93.0498 35.293 91.043 34.5166 89.5488 32.9639C88.0645 31.4111 87.3223 29.3115 87.3223 26.665C87.3223 23.96 88.0498 21.8604 89.5049 20.3662C90.9697 18.8623 93.0205 18.1104 95.6572 18.1104C97.2881 18.1104 98.7285 18.457 99.9785 19.1504C101.229 19.8438 102.19 20.8398 102.864 22.1387C103.548 23.4277 103.89 24.9365 103.89 26.665ZM93.1377 26.665C93.1377 28.0908 93.3281 29.1797 93.709 29.9316C94.0898 30.6738 94.7295 31.0449 95.6279 31.0449C96.5166 31.0449 97.1416 30.6738 97.5029 29.9316C97.874 29.1797 98.0596 28.0908 98.0596 26.665C98.0596 25.249 97.874 24.1797 97.5029 23.457C97.1318 22.7344 96.4971 22.373 95.5986 22.373C94.7197 22.373 94.0898 22.7344 93.709 23.457C93.3281 24.1699 93.1377 25.2393 93.1377 26.665ZM111.521 35L105.193 18.4033H111.17L113.982 28.2178C113.992 28.2666 114.012 28.3496 114.041 28.4668C114.07 28.584 114.1 28.7256 114.129 28.8916C114.158 29.0479 114.183 29.2188 114.202 29.4043C114.231 29.5801 114.246 29.7461 114.246 29.9023H114.349C114.349 29.3945 114.437 28.8428 114.612 28.2471L117.557 18.4033H123.519L117.19 35H111.521ZM133.523 35.293C130.76 35.293 128.611 34.5605 127.078 33.0957C125.555 31.6211 124.793 29.5264 124.793 26.8115C124.793 24.0088 125.501 21.8604 126.917 20.3662C128.333 18.8623 130.354 18.1104 132.981 18.1104C135.481 18.1104 137.41 18.7646 138.768 20.0732C140.135 21.3721 140.818 23.2471 140.818 25.6982V28.2471H130.579C130.618 29.1748 130.955 29.9023 131.59 30.4297C132.234 30.957 133.108 31.2207 134.212 31.2207C135.218 31.2207 136.141 31.1279 136.98 30.9424C137.83 30.7471 138.748 30.4199 139.734 29.9609V34.0771C138.836 34.5361 137.908 34.8535 136.951 35.0293C135.994 35.2051 134.852 35.293 133.523 35.293ZM133.187 22.0068C132.513 22.0068 131.946 22.2217 131.487 22.6514C131.038 23.0713 130.774 23.7354 130.696 24.6436H135.618C135.599 23.8428 135.369 23.2031 134.93 22.7246C134.5 22.2461 133.919 22.0068 133.187 22.0068ZM154.529 35V25.9473C154.529 24.8438 154.368 24.0137 154.046 23.457C153.733 22.8906 153.226 22.6074 152.522 22.6074C151.556 22.6074 150.857 22.9932 150.428 23.7646C149.998 24.5361 149.783 25.8594 149.783 27.7344V35H144.056V18.4033H148.377L149.095 20.4541H149.432C149.92 19.6729 150.594 19.0869 151.453 18.6963C152.322 18.3057 153.318 18.1104 154.441 18.1104C156.277 18.1104 157.703 18.6426 158.719 19.707C159.744 20.7715 160.257 22.2705 160.257 24.2041V35H154.529Z" fill="white"/>
<path d="M22.7654 1.00105C20.354 0.977976 18.0465 1.33564 15.8543 2.00482L15.6697 17.1883H15.7851C17.5388 14.2231 20.6655 12.3194 24.9806 12.3656C31.6262 12.4464 36.2644 18.0421 36.1144 26.1761C35.999 35.7523 29.9071 40.4481 23.9307 40.3789C20.054 40.3327 16.9735 38.7982 15.0236 35.2331H14.8621L14.5852 39.6636L10.374 39.6174C10.5009 37.7945 10.6509 35.0831 10.674 32.6948L11.0085 4.18543C4.50134 8.06207 0.0939733 15.1115 0.00167253 23.234C-0.148316 35.66 9.80864 45.8477 22.2346 45.9977C34.6606 46.1477 44.8483 36.1907 44.9983 23.7647C45.1483 11.3387 35.1914 1.15104 22.7654 1.00105Z" fill="#FE8C12"/>
<path d="M22.9845 36.4907C28.0841 36.5484 31.1762 32.4295 31.2454 26.2799C31.3147 20.9034 28.5918 16.2768 23.3883 16.2191C20.0655 16.1845 16.9388 18.4113 15.9004 22.1149C15.785 22.6687 15.612 23.3263 15.6004 24.1109L15.5428 28.9336C15.5312 29.5451 15.635 30.1566 15.7389 30.7104C16.6388 34.0909 19.4425 36.4561 22.9845 36.4907Z" fill="#FE8C12"/>
<path d="M10.3743 39.6057L14.5855 39.6519L14.8624 35.2215H15.0239C16.9738 38.7866 20.0543 40.3211 23.9309 40.3672C29.9074 40.4365 35.9993 35.7522 36.1146 26.1644C36.2646 18.0304 31.6265 12.4347 24.9809 12.3539C20.6658 12.3078 17.5391 14.1999 15.7854 17.1766H15.67L15.8546 1.99316C14.1355 2.52389 12.5203 3.2623 11.0088 4.16223L10.6742 32.6716C10.6512 35.0715 10.5012 37.7828 10.3743 39.6057ZM15.6008 24.1107C15.6123 23.3377 15.7854 22.6685 15.9008 22.1147C16.9392 18.4112 20.0659 16.1844 23.3887 16.219C28.5921 16.2767 31.3035 20.9148 31.2458 26.2798C31.1766 32.4293 28.0729 36.5483 22.9849 36.4906C19.4428 36.4444 16.6392 34.0908 15.7392 30.6987C15.6354 30.1449 15.5316 29.5334 15.5431 28.9219L15.6008 24.1107Z" fill="white"/>
</svg>
