<svg width="16" height="16" viewBox="0 0 16 16" fill="none" xmlns="http://www.w3.org/2000/svg">
<path d="M15.8628 6.54575L13.8882 4.57116V0.46875C13.8882 0.209875 13.6783 0 13.4195 0H2.58089C2.32201 0 2.11214 0.209875 2.11214 0.46875V4.57116C-0.0469849 6.73035 0.000327543 6.61832 0.000327543 6.87719V15.5313C0.000327543 15.7901 0.210202 16 0.469077 16H15.5313C15.7902 16 16.0001 15.7901 16.0001 15.5313C16.0001 15.4684 16.0011 6.87175 15.9981 6.83697C15.9883 6.72241 15.9366 6.6196 15.8628 6.54575ZM14.8069 6.81572L13.8882 7.46622V5.89697L14.8069 6.81572ZM12.9507 0.9375V8.12997L9.70366 10.429C8.77244 11.0883 7.5111 11.1029 6.56629 10.4639C6.44676 10.3824 3.26701 8.21619 3.04964 8.0681V0.9375H12.9507ZM2.11217 7.42941L1.2007 6.80847L2.11217 5.897V7.42941ZM15.0626 15.0625H0.937795V7.76372C1.11717 7.88594 5.11642 10.6105 5.3127 10.7442L2.75023 13.3067C2.56717 13.4898 2.56717 13.7866 2.75023 13.9696C2.93329 14.1527 3.23007 14.1527 3.41314 13.9696L6.10245 11.2803C7.29141 12.0504 8.86298 12.0927 10.1163 11.2813L12.8046 13.9696C12.9876 14.1527 13.2844 14.1527 13.4675 13.9696C13.6506 13.7866 13.6506 13.4898 13.4675 13.3067L10.895 10.7342C11.0469 10.6266 14.8652 7.92319 15.0626 7.78344V15.0625Z" fill="#FF7210"/>
<path d="M4.76807 3.125H11.2317C11.4906 3.125 11.7004 2.91513 11.7004 2.65625C11.7004 2.39738 11.4906 2.1875 11.2317 2.1875H4.76807C4.50919 2.1875 4.29932 2.39738 4.29932 2.65625C4.29932 2.91513 4.50919 3.125 4.76807 3.125Z" fill="#FF7210"/>
<path d="M4.76807 5.3125H11.2317C11.4906 5.3125 11.7004 5.10263 11.7004 4.84375C11.7004 4.58488 11.4906 4.375 11.2317 4.375H4.76807C4.50919 4.375 4.29932 4.58488 4.29932 4.84375C4.29932 5.10263 4.50919 5.3125 4.76807 5.3125Z" fill="#FF7210"/>
<path d="M4.76807 7.5H11.2317C11.4906 7.5 11.7004 7.29013 11.7004 7.03125C11.7004 6.77238 11.4906 6.5625 11.2317 6.5625H4.76807C4.50919 6.5625 4.29932 6.77238 4.29932 7.03125C4.29932 7.29013 4.50919 7.5 4.76807 7.5Z" fill="#FF7210"/>
</svg>
