<svg width="20" height="20" viewBox="0 0 20 20" fill="none" xmlns="http://www.w3.org/2000/svg">
<path d="M8.28241 11.7176C6.37356 9.80876 5.94255 7.89991 5.84531 7.13513C5.81814 6.92366 5.89091 6.71159 6.0422 6.56137L7.58693 5.01732C7.81417 4.79023 7.85449 4.43631 7.68417 4.16392L5.22466 0.344833C5.03623 0.0432121 4.64932 -0.0656458 4.33126 0.0934682L0.382872 1.95301C0.125666 2.07966 -0.0256186 2.35294 0.00358427 2.63815C0.210469 4.60355 1.06731 9.43499 5.81531 14.1833C10.5633 18.9317 15.3941 19.7882 17.3605 19.9951C17.6457 20.0243 17.919 19.873 18.0456 19.6158L19.9052 15.6674C20.0637 15.35 19.9556 14.9641 19.6552 14.7754L15.8361 12.3165C15.5639 12.146 15.21 12.1861 14.9827 12.4131L13.4387 13.9578C13.2884 14.1091 13.0764 14.1819 12.8649 14.1547C12.1001 14.0575 10.1913 13.6265 8.28241 11.7176Z" fill="#FE8C12"/>
<path d="M15.8623 10.6892C15.4814 10.6892 15.1726 10.3804 15.1726 9.99958C15.1694 7.14444 12.8557 4.8307 10.0005 4.82747C9.61966 4.82747 9.31091 4.51872 9.31091 4.13786C9.31091 3.75699 9.61966 3.44824 10.0005 3.44824C13.6171 3.45223 16.5479 6.38303 16.5519 9.99958C16.5519 10.3804 16.2431 10.6892 15.8623 10.6892Z" fill="#FE8C12"/>
<path d="M19.3103 10.689C18.9295 10.689 18.6207 10.3803 18.6207 9.99941C18.6154 5.24082 14.7591 1.38455 10.0005 1.37923C9.61966 1.37923 9.31091 1.07048 9.31091 0.689615C9.31091 0.308751 9.61966 0 10.0005 0C15.5205 0.00608098 19.9939 4.47941 19.9999 9.99941C19.9999 10.1823 19.9273 10.3577 19.798 10.487C19.6686 10.6164 19.4932 10.689 19.3103 10.689Z" fill="#FE8C12"/>
</svg>
