<svg width="20" height="23" viewBox="0 0 20 23" fill="none" xmlns="http://www.w3.org/2000/svg">
<path fill-rule="evenodd" clip-rule="evenodd" d="M0.715783 0.058202C0.458391 0.153534 0.240304 0.352678 0.112609 0.609013L0 0.835079V11.1253V21.4155L0.112609 21.6416C0.248261 21.9139 0.466174 22.1031 0.754565 22.1989C1.06926 22.3034 1.36813 22.2592 1.75148 22.0513C1.92404 21.9577 5.98804 19.6744 10.7826 16.9773C16.2155 13.9211 19.5617 12.0141 19.6638 11.916C19.9016 11.6874 20 11.456 20 11.1253C20 10.7946 19.9016 10.5632 19.6638 10.3346C19.5617 10.2365 16.2155 8.32955 10.7826 5.27332C5.98804 2.57619 1.92217 0.291878 1.7473 0.197068C1.37604 -0.00425088 1.01548 -0.0527866 0.715783 0.058202Z" fill="white"/>
</svg>
