<svg width="16" height="17" viewBox="0 0 16 17" fill="none" xmlns="http://www.w3.org/2000/svg">
<path fill-rule="evenodd" clip-rule="evenodd" d="M8.02055 3.0952C3.76991 4.79557 0.239491 6.21 0.175166 6.23839C-0.0622569 6.34312 -0.0574052 6.58968 0.184118 6.69348C0.257364 6.72497 1.77609 7.31006 3.55912 7.99366L6.80094 9.23662L8.08221 12.5752C8.78688 14.4114 9.38812 15.9384 9.41823 15.9686C9.4787 16.029 9.60247 16.04 9.6908 15.9927C9.72959 15.972 10.7576 13.438 12.8842 8.12124C15.4943 1.59563 16.0169 0.264436 15.9996 0.185619C15.9777 0.0860167 15.8777 -0.00541541 15.7968 0.000250192C15.7705 0.00209699 12.2712 1.39483 8.02055 3.0952Z" fill="white"/>
</svg>
