<svg width="186" height="43" viewBox="0 0 186 43" fill="none" xmlns="http://www.w3.org/2000/svg">
<path fill-rule="evenodd" clip-rule="evenodd" d="M64.3802 30.2505C62.9461 31.6652 62.0741 33.3924 62.2593 35.2313C62.4498 38.5027 66.1857 39.8579 68.5584 40.5977C77.0378 41.6415 84.7667 37.6449 90.8161 30.8085C91.2511 30.6831 91.5009 31.0519 91.757 31.2953C90.2595 34.1258 87.0157 36.4078 84.3942 38.3753C81.2192 40.3229 77.4452 41.8807 73.5347 42.2726C72.3553 42.3843 71.1677 42.3843 69.9883 42.2726C68.7341 42.1455 67.4998 41.8708 66.3116 41.4544C63.6933 40.4775 60.4517 38.0681 60.4517 34.9889C60.7046 33.3318 60.9544 31.7269 62.1333 30.5587L63.6319 28.8943C68.5595 24.5885 74.8597 22.5019 80.6509 21.0819C79.2253 20.2858 77.2293 19.6672 76.7891 17.8147C76.7891 12.2791 82.5876 10.4934 86.5172 8.22087C95.2431 4.2776 105.59 2.98513 115.074 3.47934C116.941 4.02893 118.754 4.09057 120 5.88458C120.375 8.64926 117.067 10.1246 115.388 11.7901C108.154 16.7092 99.2986 19.8501 89.9409 18.8648C88.7609 18.3152 87.6348 17.8795 87.2633 16.5264C87.0813 14.8672 88.6984 13.4472 90.0742 12.9551C92.1295 11.7901 94.7489 12.7116 96.6814 12.2153C96.929 12.463 97.3037 12.7116 97.1153 13.0763L96.5576 13.6938C93.8038 13.8808 90.7548 13.6322 88.8868 15.6038C88.5111 16.961 90.0743 17.2076 90.8161 17.5117C99.8003 17.9474 111.332 14.5558 118.378 6.92421C118.5 5.88354 117.313 5.50949 116.567 5.26395C103.041 4.33716 89.5091 6.24819 79.3449 14.5558C78.5311 15.4826 78.0982 16.961 78.7205 18.1292C82.3993 21.387 85.7679 19.1772 90.0732 19.6097L90.3854 19.9096L89.3175 20.7706C81.2796 22.249 73.2331 23.6021 66.627 28.4638L64.3802 30.2505ZM186 29.5954V30.4616C185.942 30.7691 185.802 31.0559 185.595 31.2922C166.263 42.7438 142.633 32.591 121.241 37.2061C120.248 37.3304 120.753 39.6677 119.434 38.4975C118.752 38.0033 119.189 37.4568 119.25 36.8968C123.494 34.1248 127.855 34.4915 132.905 34.0652C149.181 33.8824 168.326 39.6677 183.787 30.8074C184.345 30.4292 184.533 29.7563 184.221 29.1962C178.111 26.6771 172.375 24.2781 166.577 21.0809C162.213 24.2165 158.16 28.6477 152.484 28.8932C151.551 28.772 150.859 27.7836 150.551 26.9843C148.369 28.5296 145.938 29.5118 143.065 29.5118C141.07 26.4963 137.087 31.8533 135.708 27.7282C135.65 25.9426 137.459 24.4652 138.699 23.6021C138.081 23.6021 137.142 22.808 136.771 23.7212C134.151 26.5538 131.163 30.1909 127.229 29.1983L126.485 28.0333C125.106 29.0855 123.742 30.3738 121.805 29.6372C120.623 29.1409 120.313 27.6624 120.937 26.6792C122.74 23.6021 126.111 21.5166 129.729 21.5166C130.475 22.318 131.529 20.9597 132.155 21.8217C131.529 23.9751 127.918 25.0827 128.23 27.8505C129.477 28.281 130.781 27.1065 131.971 26.6802L137.517 20.9597C138.393 20.7727 137.707 21.7632 138.272 21.9408C139.95 22.249 141.325 21.3296 143.065 22.249C141.449 23.9741 138.205 24.8361 137.398 27.6049C138.957 28.0333 140.447 26.8098 141.697 26.371C143.628 22.808 147.557 22.0725 150.858 21.6942C153.047 17.0791 157.847 12.8945 162.649 11.1736C166.453 6.3088 171.753 2.3112 177.921 3.22231L178.235 5.44366C177.367 11.5989 172.317 15.8483 168.071 20.0381C173.805 23.4151 179.045 25.6375 185.089 28.0333C185.56 28.4022 185.888 28.9873 186 29.5954ZM176.618 5.568C175.371 11.0451 170.814 15.4209 166.579 18.9839C165.516 18.7446 164.582 17.8136 163.894 17.0781C165.516 15.2935 167.383 13.0763 167.449 10.4318C167.076 9.87696 166.514 9.74949 165.954 9.69098C168.949 7.17393 172.319 4.40195 176.31 4.52315L176.618 5.568ZM134.962 5.69233C127.732 7.90741 121.241 12.7116 116.76 18.8637C113.763 21.8812 112.889 27.048 108.341 28.0323C108.905 26.1881 110.776 24.834 111.332 22.9898C110.024 20.2189 107.465 24.0953 106.284 21.9398C103.538 23.786 102.044 27.8484 98.2964 28.3426C98.7949 26.1244 100.604 24.4641 102.234 22.6816C100.174 22.3713 97.8011 22.1289 95.8062 22.248C94.5594 24.2792 92.9963 26.6782 90.6913 27.7272C89.634 27.91 88.5735 29.2652 87.5766 28.3426C88.51 26.4953 90.3177 25.4463 91.1262 23.6011C90.6913 22.9282 90.0732 23.6011 89.5091 23.6011C86.1383 22.0714 82.3347 23.6032 79.5936 26.2477C78.9734 27.2319 77.9712 28.6487 79.0295 29.8221C81.2129 30.9286 84.082 29.6978 86.0769 29.0844C86.2643 29.5734 87.0136 30.1909 87.7004 30.2495C89.8203 30.0666 91.195 29.1398 92.937 28.0323C95.4929 26.9833 95.931 22.3713 99.0457 23.9093C97.799 25.2634 96.7989 26.7356 96.6793 28.584C97.3016 30.9265 99.9844 29.2631 101.167 29.0844L100.854 29.9433C100.919 30.3727 101.416 30.4908 101.789 30.5566C104.094 28.4648 105.159 23.3524 109.278 23.7202C108.089 25.4452 105.718 27.4231 107.155 29.5107C108.089 30.3111 109.15 29.1973 110.022 29.3237C109.833 29.4491 109.833 29.6393 109.833 29.8221C110.083 30.2495 110.579 30.2495 111.017 30.2495C113.019 27.7272 114.01 23.6011 117.75 22.9898C118.314 23.2333 118.808 23.6606 118.808 24.3429C117.311 27.4231 114.754 29.5107 112.392 32.1542C110.774 34.1248 108.15 36.7119 109.709 39.4243C111.52 40.4075 113.019 39.9206 115.071 39.8558C115.877 39.6677 117.001 39.3658 117.001 38.3742C115.259 38.0043 112.644 38.9854 111.017 38.6814C110.211 38.1287 110.833 37.3931 110.774 36.7119C113.138 32.7728 118.438 29.3927 120.188 25.0816C120.866 23.6606 119.687 22.3713 118.809 21.6942C125.981 17.7551 136.269 15.9737 138.578 6.73509C138.272 4.89198 136.209 6.06012 134.962 5.69233ZM136.771 7.35574C135.65 12.463 129.476 14.8661 125.107 16.961L117.506 20.4665C122.741 13.9331 128.731 8.46432 136.771 7.35574ZM163.268 15.0479C163.082 13.5716 163.956 12.0941 165.395 11.5978C164.955 12.8945 164.521 14.1274 163.268 15.0479ZM161.466 16.6455C158.469 19.2973 155.099 21.8823 152.051 23.7202C152.988 18.9233 157.663 15.4815 161.65 13.2633C161.148 14.1901 161.276 15.6007 161.466 16.6455ZM164.769 20.2189C161.585 22.8634 157.782 26.1881 153.543 27.42C152.737 27.1682 152.363 26.6217 152.363 25.8141C155.852 23.6596 159.034 20.711 162.4 18.1292C163.339 18.7446 163.583 20.0371 164.769 20.2189ZM128.976 22.9898C127.548 24.9562 125.173 27.9717 122.556 28.1577C122.181 26.1244 124.861 24.834 126.302 23.9093C127.109 23.4151 128.042 23.1727 128.976 22.9898ZM147.559 26.9843C146.193 27.233 144.19 28.584 143.194 27.421C144.627 24.6501 147.433 23.6021 150.238 23.2949C151.181 25.4463 148.934 26.0659 147.559 26.9843ZM88.0137 24.7692C86.2664 27.0491 82.9644 29.2652 80.5313 28.5829C80.906 26.3741 83.646 25.0168 85.769 24.648L88.0137 24.7692Z" fill="#686C73"/>
<path fill-rule="evenodd" clip-rule="evenodd" d="M65.7211 28.6885C71.398 29.1137 75.5096 29.2997 80.0646 32.9922C80.3123 33.9775 79.1227 33.9775 78.5639 33.734C74.3888 30.6549 69.0866 29.7291 63.4743 30.4689L61.2285 30.7792C58.7361 30.4689 55.2458 32.0727 53.2487 30.0415C51.3183 30.3456 49.1974 30.2244 47.7634 28.9956L46.3907 27.3333C43.5258 28.8097 40.5297 31.5775 37.0954 29.8535C35.6053 30.4689 33.731 31.148 32.0504 30.4689C30.8037 29.1785 31.1783 27.8275 31.7371 26.348C31.9266 25.8517 32.6103 25.4264 32.297 24.9907C28.5537 28.9309 23.8801 31.5179 18.5811 30.7792C17.4635 30.6195 16.3922 30.2304 15.4363 29.6368C14.4804 29.0433 13.6611 28.2586 13.0312 27.3333C12.7825 26.4702 12.2819 25.673 12.2819 24.6867L0.871004 34.1656C0.498472 34.0433 0.121708 33.7988 0 33.4248V32.9943L15.2727 19.9493C14.2873 19.8616 13.329 19.5829 12.4527 19.1291C11.5765 18.6754 10.7995 18.0554 10.1663 17.3048C8.22956 14.7188 8.6677 10.717 10.0425 8.01087C13.0312 2.89841 19.0816 0.24554 24.8135 0C29.2437 0.48899 33.6104 1.47533 36.3557 5.17619C38.4734 7.57308 38.5962 11.7671 38.0363 14.6551C41.841 14.2246 46.8839 13.4284 50.7521 14.7815C52.7523 12.0712 55.6215 8.49777 59.1108 8.31701C60.1077 8.43403 61.2973 8.99094 61.4804 10.0953C61.1078 15.3332 56.0586 19.0257 52.2496 22.6544L47.8872 26.1599C47.8216 27.1494 48.7 28.0093 49.5054 28.3823C50.7521 28.6874 51.693 28.4461 52.9989 28.6874C52.8741 26.5298 54.5557 24.3764 56.43 23.0849C57.8651 21.9795 60.1077 21.9795 61.7905 22.4716C62.4805 24.1925 61.3555 25.7294 60.4813 26.8986L56.5549 29.2987L62.725 29.1127L65.7211 28.6885ZM30.6777 2.95902C25.1871 0.739755 18.0201 1.91103 13.7837 5.78847C10.85 8.25327 9.97791 12.1338 11.0934 15.7072C12.2205 17.9192 14.9679 18.1062 17.0835 18.3434L30.8037 6.95766L32.297 6.8375L32.6103 7.88339L20.2024 18.0404C25.874 17.4877 30.6767 16.3216 36.0361 15.0887C36.5398 13.0575 37.0944 10.343 36.2255 8.3191C35.1047 5.72682 32.7976 4.49704 30.6777 2.95902ZM59.4219 10.0964C56.1199 10.2886 53.9313 13.3595 52.0644 15.8232L52.6867 16.4386C52.9354 17.3027 54.3695 18.4134 52.9979 19.2138C51.5681 19.8887 51.6919 17.8565 50.8802 17.4866C49.6959 19.4572 48.3857 21.736 47.8862 24.1245C52.3121 20.011 58.2398 16.2516 59.858 10.5331L59.4219 10.0964ZM37.5378 16.749C36.0382 19.5262 34.7311 22.3504 32.6113 24.8737C33.985 23.0243 35.7895 21.7945 37.7209 20.9984C39.537 20.5021 42.2135 20.9984 43.528 22.6555C42.3426 24.3774 40.8409 22.4162 39.3486 22.6555C37.414 23.0254 35.545 23.9469 34.2972 25.6082C34.0422 26.7785 32.2377 27.7575 33.2378 29.1137C37.5389 29.6706 38.4744 24.4997 41.9045 23.6377C42.15 23.9469 42.5882 24.1946 42.6506 24.5623C41.715 25.8517 39.3486 26.9665 38.7845 28.8097C41.5902 28.8097 43.7724 26.8997 45.9547 25.6082C45.7028 22.1049 47.7644 19.149 49.5065 16.2526C45.7018 15.0887 41.2758 15.8828 37.5378 16.749ZM35.2878 16.9955L26.9397 18.9682C22.7615 20.6264 16.8338 18.1052 14.0937 23.2072C13.7149 25.0566 14.6557 26.348 15.3955 27.6447C16.9565 28.8097 18.7705 29.6706 20.9496 29.2997C27.6234 28.8107 32.9225 22.7245 35.2878 16.9955ZM54.9304 28.072C56.8047 27.3343 59.9204 26.349 60.294 23.6377C57.8027 23.273 55.3706 25.7911 54.9304 28.072Z" fill="#686C73"/>
</svg>
